<svg id="PLANT" xmlns="http://www.w3.org/2000/svg" viewBox="0 0 500 500"><defs><style>.cls-1{fill:#404b7c;}.cls-2{fill:#9ab3da;}.cls-3{fill:#f68d88;}.cls-4{fill:#ecbdbb;}.cls-5{fill:#e9f3ff;}.cls-6{fill:#fff;}</style></defs><title>Customer Interview</title><path class="cls-1" d="M429.06,403.78c-8.37,5.63-22.06-27-23-36.11s6-3.86,6-3.86-6.57-29.47-2.44-38.45,7.8,1.26,7.8,1.26,3.12-30.4,16.54-33.14,2.41,30.91,2.41,30.91,5.48-8.42,10.88-6.17-10.46,40.42-10.46,40.42S442.9,351.89,448,354,442,395.09,429.06,403.78Z"/><path class="cls-2" d="M427.4,401.61a0.5,0.5,0,0,1-.49-0.42c-0.1-.58-9.71-58.41,5.48-101.58a0.5,0.5,0,1,1,.94.33c-15.1,42.92-5.54,100.5-5.44,101.08a0.5,0.5,0,0,1-.41.58H427.4Z"/><path class="cls-2" d="M424.3,356.17a0.5,0.5,0,0,1-.29-0.1c-9.5-6.93-10.79-24.09-10.85-24.82a0.5,0.5,0,0,1,1-.07c0,0.17,1.29,17.09,10.17,23.88,1.62-1,10.32-7.42,16.13-26.71a0.5,0.5,0,1,1,1,.29c-6.54,21.69-16.46,27.24-16.88,27.47A0.5,0.5,0,0,1,424.3,356.17Z"/><path class="cls-2" d="M425.48,385.76l-0.15,0c-5.77-1.78-10.16-12.91-10.34-13.38a0.5,0.5,0,0,1,.93-0.36c0,0.11,4.27,10.84,9.48,12.71,1.09-.8,6.76-5.41,11.12-17.81a0.5,0.5,0,0,1,.94.33c-5,14.08-11.45,18.28-11.72,18.46A0.51,0.51,0,0,1,425.48,385.76Z"/><path class="cls-2" d="M426.22,328.92h0a0.51,0.51,0,0,1-.36-0.17c-2.75-3.18-3.37-13.22-3.4-13.64a0.5,0.5,0,1,1,1-.06c0,0.1.57,9.23,2.82,12.61,1.35-1.44,5.79-6.48,7.37-12.42a0.5,0.5,0,0,1,1,.26c-1.93,7.28-7.78,13-8,13.29A0.5,0.5,0,0,1,426.22,328.92Z"/><path class="cls-2" d="M439.09,404.92c-9.6,1.72-9-32.47-6.31-40.91s6.78-1.09,6.78-1.09,5.66-28.63,12.8-35,6.41,4.15,6.41,4.15,14.59-25.67,27.53-22.87-9.9,28.28-9.9,28.28,8.12-5.32,12-1.22-25,31.69-25,31.69,8.08-3.57,11.75.27S453.9,402.26,439.09,404.92Z"/><path class="cls-1" d="M438.66,402.41h-0.12a0.5,0.5,0,0,1-.36-0.61c0.14-.55,14.15-55.45,44.39-87.73a0.5,0.5,0,1,1,.73.68c-30.07,32.09-44,86.74-44.15,87.29A0.5,0.5,0,0,1,438.66,402.41Z"/><path class="cls-1" d="M453.6,361a0.5,0.5,0,0,1-.43-0.25c-5.71-9.83-.17-25.52.06-26.19a0.5,0.5,0,1,1,.94.34c-0.06.16-5.51,15.6-.3,25.06,1.87-.3,12-2.58,24.65-17.34a0.5,0.5,0,0,1,.76.65C465,359.92,454.1,361,453.64,361h0Z"/><path class="cls-1" d="M443.12,387.64a0.5,0.5,0,0,1-.33-0.12c-4.42-3.83-4-15.38-3.95-15.87a0.49,0.49,0,0,1,.52-0.48,0.5,0.5,0,0,1,.48.52c0,0.11-.44,11.22,3.42,14.91,1.3-.29,8.09-2.17,16.75-11.42a0.5,0.5,0,1,1,.73.68c-9.87,10.53-17.25,11.72-17.56,11.77h-0.07Z"/><path class="cls-1" d="M465.9,337.64a0.5,0.5,0,0,1-.48-0.35c-1.19-3.89,2.16-13,2.3-13.4a0.5,0.5,0,1,1,.94.35c0,0.09-3.07,8.36-2.41,12.22,1.78-.75,7.64-3.49,11.32-8.11a0.5,0.5,0,1,1,.78.62c-4.54,5.69-12,8.52-12.28,8.64A0.51,0.51,0,0,1,465.9,337.64Z"/><path class="cls-2" d="M424.52,409.47a3.45,3.45,0,0,1-2.6.31c-14.57-3.76-37.2-35.72-33.26-39.28s11.35,0.42,11.72.6c-0.56-.62-26.7-29.7-22.53-33.45s11.51,1.83,11.89,2.11c-0.36-.47-13.19-17.28-12-25.09a3.19,3.19,0,0,1,5.7-1.31C410.47,348.44,421.72,395.84,424.52,409.47Z"/><path class="cls-1" d="M410.19,364.78l-0.12,0c-2.71-.7-12.4-4.16-23.62-19.46a0.5,0.5,0,0,1,.81-0.59c11,15,20.44,18.41,23.06,19.08A0.5,0.5,0,0,1,410.19,364.78Z"/><path class="cls-1" d="M419.22,392.26h-0.11c-0.3-.07-7.57-1.81-16.63-13.05a0.5,0.5,0,1,1,.78-0.63c8.84,11,16,12.69,16.07,12.7A0.5,0.5,0,0,1,419.22,392.26Z"/><path class="cls-1" d="M398.93,340a0.49,0.49,0,0,1-.24-0.06c-2.54-1.4-7.25-4.41-10.27-8.83a0.5,0.5,0,1,1,.83-0.56c2.91,4.25,7.47,7.17,9.93,8.52A0.5,0.5,0,0,1,398.93,340Z"/><path class="cls-3" d="M445.09,456h-34.8a10.72,10.72,0,0,1-10.72-10.34l-1.5-42.09a3.69,3.69,0,0,1,3.68-3.82h51.86a3.69,3.69,0,0,1,3.68,3.82l-1.5,42.09A10.72,10.72,0,0,1,445.09,456Z"/><path class="cls-4" d="M453.62,399.75H443.46c-0.78,3.4-.55,8.3,6.1,10.63a13.33,13.33,0,0,0,7.48.49l0.26-7.3A3.69,3.69,0,0,0,453.62,399.75Z"/><path class="cls-4" d="M431.07,413.38c-1.36-4.79,1.2-10.27,3.24-13.62H423.15c-6.42,10.76-2.54,30.32,14.92,26.13,8.65-2.08,14.54-1,18.42.87l0.3-8.46C446.72,412,433,420.25,431.07,413.38Z"/><path class="cls-4" d="M454.2,450.93c-8.5-18.67-23.73-.36-33.75-19.93-6.85-13.39-16-13.41-21.8-11.67l0.33,9.2c17.9-7,17.12,22.26,32.35,20,8.14-1.23,12.76,3.1,15.29,7.38A10.71,10.71,0,0,0,454.2,450.93Z"/><path class="cls-4" d="M407.07,438.5c-4.62,1.15-.25,11.5,3.75,8.75S410.57,437.63,407.07,438.5Z"/><path class="cls-4" d="M445.62,431.42c-3.17,1.89,2.38,8.59,4.74,5.65S448,430,445.62,431.42Z"/><path class="cls-1" d="M71.29,412.28c7,4.71,18.47-22.6,19.28-30.23s-5-3.23-5-3.23,5.5-24.68,2-32.19-6.53,1.05-6.53,1.05-2.61-25.45-13.85-27.74-2,25.88-2,25.88-4.59-7-9.11-5.17,8.76,33.84,8.76,33.84-5.17-5.65-9.41-3.88S60.47,405,71.29,412.28Z"/><path class="cls-2" d="M72.68,410.54H72.6a0.5,0.5,0,0,1-.41-0.58c0.08-.48,8.09-48.67-4.55-84.59a0.5,0.5,0,0,1,.94-0.33c12.73,36.17,4.68,84.6,4.59,85.09A0.5,0.5,0,0,1,72.68,410.54Z"/><path class="cls-2" d="M75.28,372.49a0.5,0.5,0,0,1-.24-0.06c-0.35-.19-8.69-4.85-14.17-23a0.5,0.5,0,1,1,1-.29c4.82,16,12,21.34,13.43,22.29,7.37-5.69,8.43-19.76,8.44-19.9a0.5,0.5,0,1,1,1,.07c0,0.61-1.13,15-9.11,20.84A0.5,0.5,0,0,1,75.28,372.49Z"/><path class="cls-2" d="M74.29,397.27A0.51,0.51,0,0,1,74,397.2c-0.23-.14-5.68-3.68-9.85-15.49a0.5,0.5,0,1,1,.94-0.33c3.61,10.24,8.27,14.12,9.25,14.85,4.31-1.6,7.81-10.49,7.85-10.58a0.5,0.5,0,0,1,.93.36c-0.15.4-3.84,9.75-8.71,11.25Z"/><path class="cls-2" d="M73.67,349.68a0.5,0.5,0,0,1-.35-0.14c-0.21-.2-5.13-5-6.75-11.16a0.5,0.5,0,0,1,1-.26c1.29,4.86,4.87,9,6.08,10.29,1.83-2.87,2.29-10.35,2.29-10.43a0.49,0.49,0,0,1,.53-0.47,0.5,0.5,0,0,1,.47.53c0,0.36-.54,8.78-2.86,11.47a0.51,0.51,0,0,1-.36.17h0Z"/><path class="cls-2" d="M62.9,413.23c8,1.44,7.54-27.18,5.29-34.25s-5.67-.92-5.67-0.92-4.74-24-10.72-29.28-5.36,3.47-5.36,3.47-12.22-21.49-23.05-19.15,8.29,23.68,8.29,23.68-6.8-4.45-10.07-1,20.92,26.53,20.92,26.53-6.77-3-9.84.23S50.49,411,62.9,413.23Z"/><path class="cls-1" d="M63.26,411.21a0.5,0.5,0,0,1-.48-0.38c-0.12-.46-11.79-46.2-36.94-73a0.5,0.5,0,1,1,.73-0.68c25.34,27,37.07,73,37.18,73.49a0.5,0.5,0,0,1-.36.61H63.26Z"/><path class="cls-1" d="M50.75,376.54h0c-0.39,0-9.58-.91-21.52-14.87a0.5,0.5,0,0,1,.76-0.65c10.43,12.21,18.84,14.2,20.53,14.48,4.3-7.89-.24-20.73-0.29-20.86a0.5,0.5,0,1,1,.94-0.34c0.2,0.56,4.85,13.73,0,22A0.5,0.5,0,0,1,50.75,376.54Z"/><path class="cls-1" d="M59.52,398.85H59.44c-0.26,0-6.46-1-14.75-9.88a0.5,0.5,0,1,1,.73-0.68c7.15,7.63,12.77,9.26,13.94,9.53,3.18-3.09,2.81-12.3,2.81-12.39a0.5,0.5,0,0,1,.48-0.52,0.48,0.48,0,0,1,.52.48c0,0.41.4,10.12-3.33,13.36A0.5,0.5,0,0,1,59.52,398.85Z"/><path class="cls-1" d="M40.44,357a0.52,0.52,0,0,1-.18,0c-0.26-.1-6.5-2.47-10.32-7.26a0.5,0.5,0,1,1,.78-0.62c3,3.78,7.77,6,9.35,6.72,0.49-3.25-2-10-2-10.09a0.5,0.5,0,1,1,.94-0.35c0.12,0.32,2.94,8,1.93,11.27A0.5,0.5,0,0,1,40.44,357Z"/><path class="cls-3" d="M82,456H52.84a9,9,0,0,1-9-8.66L42.62,412.1a3.09,3.09,0,0,1,3.08-3.2H89.12a3.09,3.09,0,0,1,3.08,3.2L91,447.34A9,9,0,0,1,82,456Z"/><path class="cls-4" d="M89.12,408.9H80.61c-0.66,2.85-.46,7,5.11,8.9a11.16,11.16,0,0,0,6.26.41l0.22-6.11A3.09,3.09,0,0,0,89.12,408.9Z"/><path class="cls-4" d="M70.24,420.31c-1.14-4,1-8.6,2.71-11.41H63.6c-5.38,9-2.12,25.39,12.49,21.87,7.24-1.74,12.18-.82,15.42.73l0.25-7.08C83.34,419.18,71.87,426.07,70.24,420.31Z"/><path class="cls-4" d="M89.6,451.75c-7.12-15.64-19.87-.3-28.26-16.69-5.74-11.21-13.43-11.23-18.26-9.77l0.27,7.7c15-5.86,14.34,18.64,27.09,16.72,6.81-1,10.68,2.6,12.8,6.18A9,9,0,0,0,89.6,451.75Z"/><path class="cls-4" d="M50.14,441.35c-3.87,1-.21,9.63,3.14,7.33S53.07,440.62,50.14,441.35Z"/><path class="cls-4" d="M82.42,435.42c-2.65,1.58,2,7.19,4,4.73S84.43,434.23,82.42,435.42Z"/><path class="cls-1" d="M236,354.67H92s-23.8-68.79-22.3-108.17c0.91-23.91,9.44-40.57,25.09-49C104.9,192,118,190,133.94,191.67c41.23,4.33,58.43,48.78,61.11,71.28H232a14.35,14.35,0,0,1,2.26.18h0.1a12.48,12.48,0,0,1,2.22.57,12.19,12.19,0,0,1,1.31.55h0c4.2,2.1,8.12,7.3,8.56,19.83C247.08,303.1,243.72,326.67,236,354.67Z"/><path class="cls-2" d="M216.87,355.17h-0.12a0.5,0.5,0,0,1-.37-0.6c3.19-13.08,6.38-42.41,7.1-56.08,0.13-2.54.16-5.28,0.19-8.19,0.11-11.31.23-24.13,7.3-27a0.5,0.5,0,1,1,.38.92c-6.45,2.66-6.58,15.13-6.68,26.13,0,2.92-.06,5.67-0.19,8.23-0.71,13.7-3.92,43.13-7.12,56.26A0.5,0.5,0,0,1,216.87,355.17Z"/><path class="cls-2" d="M157.57,361l17.54,91.52a3.49,3.49,0,0,1-3.43,4.14h0a3.49,3.49,0,0,1-3.35-2.51L141.07,361h16.5Z"/><path class="cls-2" d="M103.32,361L85.78,452.52a3.49,3.49,0,0,0,3.43,4.14h0a3.49,3.49,0,0,0,3.35-2.51L119.82,361h-16.5Z"/><path class="cls-1" d="M226.32,361l17.54,91.52a3.49,3.49,0,0,1-3.43,4.14h0a3.49,3.49,0,0,1-3.35-2.51L209.82,361h16.5Z"/><path class="cls-1" d="M172.07,361l-17.54,91.52a3.49,3.49,0,0,0,3.43,4.14h0a3.49,3.49,0,0,0,3.35-2.51L188.57,361h-16.5Z"/><polygon class="cls-2" points="235.99 354.67 229.99 366 95.88 366 91.99 354.67 235.99 354.67"/><path class="cls-1" d="M117.24,366.5H103.86a0.5,0.5,0,0,1,0-1h13.38A0.5,0.5,0,0,1,117.24,366.5Z"/><path class="cls-1" d="M156.36,366.5h-12a0.5,0.5,0,0,1,0-1h12A0.5,0.5,0,1,1,156.36,366.5Z"/><path class="cls-1" d="M236,354.67L231.69,366H157.55c-0.85-2.82-1.94-6.67-3.09-11.33H236Z"/><path class="cls-1" d="M177.28,105s-0.08-.15-0.25-0.42c-1.18-1.88-6.79-9.38-20.25-8-15.37,1.63-21.37,20.38-16.62,28.13S136,136,126.78,139.88s-16.62,16.5-7.87,27.88,53.37,14,56.25.5S168.91,143.88,170,133Z"/><polygon class="cls-4" points="168.3 134.88 166.87 142.2 165.42 149.62 157.67 148.62 159.01 134.44 159.42 130.12 168.3 134.88"/><path class="cls-1" d="M168.3,134.88l-1.43,7.32c-4.63-.6-6.82-4.4-7.86-7.76l0.41-4.32Z"/><path class="cls-3" d="M140.67,148.5s18-7.62,36.63,1.5l-3.5,10.75-30.62-1.12Z"/><path class="cls-3" d="M120.17,172.5s16.25-16.75,37.75-16.25,34,17.75,34,17.75,11,17.25,10.75,25.75-6.25,32-6.25,32A112,112,0,0,0,203.67,252c4.75,9.75,29.5,27.75,33.5,31.75s7.25,43.13-45.5,43.13-73-13.88-73-47.88S120.17,172.5,120.17,172.5Z"/><path class="cls-4" d="M172.82,159.95a0.5,0.5,0,0,1-.19,0,40.53,40.53,0,0,0-14.72-3.16,43.32,43.32,0,0,0-13.1,1.78,0.5,0.5,0,1,1-.28-1,44.25,44.25,0,0,1,13.41-1.82A41.54,41.54,0,0,1,173,159,0.5,0.5,0,0,1,172.82,159.95Z"/><polygon class="cls-4" points="233.84 417.33 232.1 424.07 228.84 436.66 219.67 436.66 222.75 422.41 223.84 417.33 233.84 417.33"/><polygon class="cls-1" points="233.84 417.33 232.1 424.07 222.75 422.41 223.84 417.33 233.84 417.33"/><path class="cls-3" d="M260.33,456.67H213a37.88,37.88,0,0,1,.1-4,55.85,55.85,0,0,1,5.23-19.34c5.84,1.5,12.67.17,12.67,0.17s26.17,13.33,27.33,15.17a14.06,14.06,0,0,1,1.3,4C260.07,454.71,260.33,456.67,260.33,456.67Z"/><path class="cls-1" d="M260.33,456.67H213a37.88,37.88,0,0,1,.1-4h46.53C260.07,454.71,260.33,456.67,260.33,456.67Z"/><path class="cls-1" d="M215.54,284.7c-16.89-1.22-28.77,16.89-20.37,31.59,2.12,3.71,5,6.5,8,7.7,10,4,31,2.67,31,2.67l-15,93H237.5s35.67-97.33,37.33-110-6.83-20.5-22.17-22C243.72,286.79,227.47,285.57,215.54,284.7Z"/><path class="cls-2" d="M225.75,415.25h-0.1a0.5,0.5,0,0,1-.4-0.59l20.15-103.47L201.19,306a0.5,0.5,0,0,1-.44-0.56,0.51,0.51,0,0,1,.55-0.44l44.75,5.25a0.5,0.5,0,0,1,.43.59l-20.25,104A0.5,0.5,0,0,1,225.75,415.25Z"/><path class="cls-2" d="M235.17,325.66a0.49,0.49,0,0,1-.22-0.05,0.5,0.5,0,0,1-.22-0.67c0.32-.65,8.06-15.9,19.62-19.75a0.5,0.5,0,1,1,.32.95c-11.17,3.72-19,19.09-19,19.25A0.5,0.5,0,0,1,235.17,325.66Z"/><polygon class="cls-4" points="183 417.33 181.3 423.89 178 436.66 168.84 436.66 171.82 422.79 173 417.33 183 417.33"/><polygon class="cls-1" points="183 417.33 181.3 423.89 171.82 422.79 173 417.33 183 417.33"/><path class="cls-3" d="M209.5,456.67H162.17a37.88,37.88,0,0,1,.1-4,55.85,55.85,0,0,1,5.23-19.34c5.84,1.5,12.67.17,12.67,0.17s26.17,13.33,27.33,15.17a14.06,14.06,0,0,1,1.3,4C209.24,454.71,209.5,456.67,209.5,456.67Z"/><path class="cls-1" d="M209.5,456.67H162.17a37.88,37.88,0,0,1,.1-4H208.8C209.24,454.71,209.5,456.67,209.5,456.67Z"/><path class="cls-2" d="M224,309.66c-1.66,12.67-37.33,110-37.33,110H168.34l15-93a145.47,145.47,0,0,1-16.69,0c-5.19-.35-10.53-1.1-14.31-2.61-10-4-18.67-25.67-2.34-40.34,0,0,36.56,2.51,51.84,4S225.67,297,224,309.66Z"/><path class="cls-1" d="M195.17,310.75a54,54,0,0,0-11.83,15.91,145.47,145.47,0,0,1-16.69,0Z"/><path class="cls-1" d="M174.92,415.25h-0.1a0.5,0.5,0,0,1-.4-0.59l20.15-103.47L150.36,306a0.5,0.5,0,0,1-.44-0.56,0.51,0.51,0,0,1,.55-0.44l44.75,5.25a0.5,0.5,0,0,1,.43.59l-20.25,104A0.5,0.5,0,0,1,174.92,415.25Z"/><path class="cls-1" d="M184.33,325.66a0.49,0.49,0,0,1-.22-0.05,0.5,0.5,0,0,1-.22-0.67c0.32-.65,8.06-15.9,19.62-19.75a0.5,0.5,0,0,1,.32.95c-11.17,3.72-19,19.09-19,19.25A0.5,0.5,0,0,1,184.33,325.66Z"/><path class="cls-3" d="M186.34,168.67c-9.41-5-23.17,4.33-16.83,20.67s49.32,53.08,56.9,53.33,7.1-20.33,7.1-20.33S202.84,177.5,186.34,168.67Z"/><polygon class="cls-1" points="199.79 229.88 209.29 172.88 175.54 172.88 166.04 229.88 199.79 229.88"/><polygon class="cls-5" points="172.11 170.56 175.54 172.88 209.29 172.88 205.86 170.56 172.11 170.56"/><polygon class="cls-2" points="172.11 170.56 162.61 227.56 166.04 229.88 175.54 172.88 172.11 170.56"/><path class="cls-3" d="M226.41,242.67c-2.33-.29-8-5.85-11.88-10-2.37-2.51-4.11-4.5-4.11-4.5-4-12.34,5.17-17.25,5.17-17.25s2.22,1.07,5.25,2.74l0.12,0.06c5.78,3.2,14.39,8.51,16.13,12.7C239.75,232.83,239.12,244.25,226.41,242.67Z"/><path class="cls-4" d="M222.51,240.86a0.5,0.5,0,0,1-.32-0.11,81.23,81.23,0,0,1-6.65-6.28,0.5,0.5,0,0,1,.72-0.7,80.23,80.23,0,0,0,6.56,6.2A0.5,0.5,0,0,1,222.51,240.86Z"/><path class="cls-4" d="M229.89,219.74a0.5,0.5,0,0,1-.29-0.09c-2.12-1.5-4.67-3.1-7.58-4.75a0.5,0.5,0,0,1,.49-0.87c2.94,1.67,5.52,3.29,7.66,4.81A0.5,0.5,0,0,1,229.89,219.74Z"/><path class="cls-2" d="M214.53,232.67c-2.37-2.51-4.11-4.5-4.11-4.5-4-12.34,5.17-17.25,5.17-17.25s2.22,1.07,5.25,2.74C221.68,217.75,222.29,226.48,214.53,232.67Z"/><path class="cls-4" d="M203,217.25l3.42,0.92,6.42,6.42s4.67-5.42,2.5-11.08l-5.83-4-3.5-8.17Z"/><path class="cls-4" d="M205.54,199.58a19.25,19.25,0,0,0-6.25-5.25c-1.62-.87-3.25,1.23-1.69,4.1,0,0-2.54,2-.1,5.19,0,0-2.52,2.13-.08,5,0,0-2.94,1.1-.87,4.17s6,5.75,7.38,5.08,0.38-4,.38-4,2.71-1.62,1-5.29c0,0,1.92-1.83.25-4.79C205.54,203.79,207.79,202.67,205.54,199.58Z"/><path class="cls-1" d="M203,213.32a0.5,0.5,0,0,1-.4-0.2,13.89,13.89,0,0,0-4.4-3.54,0.5,0.5,0,0,1,.43-0.9,14.67,14.67,0,0,1,4.77,3.84A0.5,0.5,0,0,1,203,213.32Z"/><path class="cls-1" d="M203.88,208.42a0.5,0.5,0,0,1-.42-0.23,12,12,0,0,0-5-3.93,0.5,0.5,0,0,1,.37-0.93,12.88,12.88,0,0,1,5.49,4.32A0.5,0.5,0,0,1,203.88,208.42Z"/><path class="cls-1" d="M203.88,203.42a0.5,0.5,0,0,1-.42-0.23,14.67,14.67,0,0,0-4.85-4.28,0.5,0.5,0,0,1,.46-0.89,15.42,15.42,0,0,1,5.23,4.63A0.5,0.5,0,0,1,203.88,203.42Z"/><path class="cls-3" d="M157.5,228s-2.83,2.09-7.22,5c-7.88,5.16-20.78,12.86-31.28,15.54-16.33,4.17-27.5,2-28.33-8.5s14-51.69,29.5-67.5c9.33-9.5,24.33,14.67,17.33,26.17-4.39,7.21-10.33,17.66-10.33,17.66l12.24-3.51,6.93-2C158,215.33,157.5,228,157.5,228Z"/><path class="cls-4" d="M119,249a0.5,0.5,0,0,1-.12-1c9.46-2.41,20.91-8.95,28.85-14a0.5,0.5,0,0,1,.54.84c-8,5.09-19.56,11.68-29.14,14.13Z"/><path class="cls-4" d="M127.17,216.83a0.5,0.5,0,0,1-.43-0.75c0.06-.1,6-10.54,10.34-17.67,2.68-4.4,2.19-11.54-1.24-18.19-2.81-5.44-6.93-9.12-10.5-9.37a0.5,0.5,0,0,1,.07-1c4,0.28,8.31,4.08,11.32,9.91,3.59,7,4.07,14.48,1.21,19.17-3.52,5.78-8.09,13.73-9.71,16.58l8.49-2.44a0.5,0.5,0,1,1,.28,1l-9.68,2.77Z"/><path class="cls-2" d="M157.5,228s-2.83,2.09-7.22,5c-10.75-5.47-11.15-16.08-10.87-20.14l6.93-2C158,215.33,157.5,228,157.5,228Z"/><path class="cls-4" d="M147.17,213.58s1.75,8.5,7.58,11l11.08-9.67s11.08-.48,12.46-1.48a3.89,3.89,0,0,0,1.31-3,4.38,4.38,0,0,0,1.38-4.5,5.38,5.38,0,0,0,1-5.5s3.06-5.19,3.5-7-1.75-2.37-3.37-.62a11.1,11.1,0,0,1-3.44,2.88c-0.87.38-9.25,2.06-9.25,2.06a3.08,3.08,0,0,1-1.58-1.61l0.91-5.45a8.79,8.79,0,0,0-4.65,5.06c-1.06,3.56-2.87,11.13-2.87,11.13Z"/><path class="cls-1" d="M177.65,354.67H92s-23.8-68.79-22.3-108.17q0.18-4.92.8-9.43c1.49-10.88,17.54-10.17,18,.8,0.37,8.51,1.33,17.68,2.7,27.09h59.11l3.15,0.08c10.73,0,14.59,6.43,15.85,18.63C171.32,303,177.65,354.67,177.65,354.67Z"/><path class="cls-2" d="M150.32,265.46H91.21a0.5,0.5,0,0,1-.49-0.43c-1.44-9.91-2.35-19-2.7-27.14a0.5,0.5,0,0,1,.48-0.52,0.49,0.49,0,0,1,.52.48c0.35,7.95,1.23,16.9,2.63,26.61h58.68A0.5,0.5,0,1,1,150.32,265.46Z"/><path class="cls-2" d="M154.19,353.93a0.5,0.5,0,0,1-.49-0.4c-2.68-12.49-15.49-75.37-4.77-86.95a0.5,0.5,0,1,1,.73.68c-10.61,11.45,3.38,78.45,5,86.06a0.5,0.5,0,0,1-.38.59h-0.11Z"/><path class="cls-4" d="M165.54,107.88c-8.34,4.54-12.75,30.13,2.13,31.38S182.54,98.63,165.54,107.88Z"/><path class="cls-1" d="M156,128.5s2.88-7.25,6.5-11.75c0,0,8.88,5.63,16.5,2.88s11.88-17.37,5.38-20.25-10,3.63-10,3.63S146.42,94.88,156,128.5Z"/><path class="cls-4" d="M159.17,126.25s-2.37-9.37-9.87-7.5-0.62,16.13,10.13,11.38Z"/><path class="cls-1" d="M156.27,128.46a0.5,0.5,0,0,1-.47-0.32c0-.05-2.14-5.34-6.59-6a0.5,0.5,0,1,1,.15-1c5,0.76,7.28,6.4,7.37,6.64A0.5,0.5,0,0,1,156.27,128.46Z"/><path class="cls-1" d="M152.22,127.55a0.5,0.5,0,0,1-.5-0.49,7.08,7.08,0,0,1,1.19-3.64,0.5,0.5,0,0,1,.85.53,6.21,6.21,0,0,0-1,3.08,0.5,0.5,0,0,1-.49.51h0Z"/><path class="cls-1" d="M163.28,122.35s1.78-3.22,4.22-1.85a0.81,0.81,0,0,1,.76-0.73c0.65,0,.63,2.06.63,2.06A14.15,14.15,0,0,0,163.28,122.35Z"/><path class="cls-1" d="M177.26,124.55s-0.05-3.36-2-2.52a0.77,0.77,0,0,0-.44-0.71c-0.72-.15-1,1.77-1,1.77A6,6,0,0,1,177.26,124.55Z"/><ellipse class="cls-1" cx="166.64" cy="126.39" rx="1.71" ry="1.38" transform="translate(27.89 282.9) rotate(-85.62)"/><circle class="cls-6" cx="166.99" cy="125.81" r="0.37" transform="translate(28.8 282.71) rotate(-85.62)"/><ellipse class="cls-1" cx="174.75" cy="127.02" rx="1.71" ry="1.38" transform="matrix(0.08, -1, 1, 0.08, 34.77, 291.56)"/><circle class="cls-6" cx="175.1" cy="126.43" r="0.37" transform="translate(35.67 291.37) rotate(-85.62)"/><path class="cls-1" d="M171.17,132.57a3.5,3.5,0,0,1-1.07-.17,0.5,0.5,0,0,1,.31-0.95s1.42,0.45,1.84-.43a0.28,0.28,0,0,0,0-.29,2.22,2.22,0,0,0-1.37-.51,0.5,0.5,0,0,1-.46-0.53l0.23-3.33a0.51,0.51,0,0,1,.53-0.46,0.5,0.5,0,0,1,.46.53l-0.2,2.87a2.46,2.46,0,0,1,1.67.95,1.25,1.25,0,0,1,0,1.22A2.06,2.06,0,0,1,171.17,132.57Z"/><path class="cls-6" d="M171,135.63s-3.79,2.2-5.9-2.44Z"/><rect class="cls-1" x="116.98" y="342.81" width="204.13" height="11.5" rx="5.75" ry="5.75" transform="translate(-129.52 567.61) rotate(-90)"/><rect class="cls-2" x="142.36" y="246.5" width="193.75" height="11.5" rx="5.75" ry="5.75"/><rect class="cls-5" x="101.98" y="246.5" width="80.75" height="11.5" rx="5.75" ry="5.75"/><polygon class="cls-4" points="295.85 437.21 286.03 437.21 282.18 423.38 280.46 417.21 291.84 415.84 292.87 421.33 295.85 437.21"/><polygon class="cls-1" points="292.87 421.33 282.18 423.38 280.46 417.21 291.84 415.84 292.87 421.33"/><path class="cls-1" d="M297,433.72a139.18,139.18,0,0,1-14.36-.63c-5.43,8.75-24.32,15.25-25.1,16.58a7.6,7.6,0,0,0-.41,3c0,1.93.19,4,.19,4h41.8A128,128,0,0,0,297,433.72Z"/><path class="cls-2" d="M299.08,452.67H257.15c0,1.93.19,4,.19,4h41.8C299.14,455.32,299.12,454,299.08,452.67Z"/><path class="cls-1" d="M329.73,293.84s-77.38-1.67-84,0-6.1,12-5.2,18.67,37,107.33,37,107.33H294.1s-9.89-63.67-14.46-85.33c0,0,71.43,13,86,9s13.84-32.67,13.84-32.67Z"/><path class="cls-2" d="M283.47,416.34A0.5,0.5,0,0,1,283,416L258.4,319a0.5,0.5,0,0,1,.48-0.62h75.49l7.47-13.74a0.5,0.5,0,1,1,.88.48l-7.62,14a0.5,0.5,0,0,1-.44.26H259.53L284,415.71a0.5,0.5,0,0,1-.36.61Z"/><path class="cls-2" d="M277.48,333.09a0.5,0.5,0,0,1-.23-0.06c-0.15-.08-14.88-7.94-23.35-19.4a0.5,0.5,0,1,1,.8-0.59c8.32,11.27,22.86,19,23,19.1A0.5,0.5,0,0,1,277.48,333.09Z"/><path class="cls-2" d="M334.68,319.34a0.5,0.5,0,0,1-.42-0.23c-8-12.21-.57-19.32-0.49-19.39a0.5,0.5,0,0,1,.68.73c-0.29.27-6.89,6.63,0.65,18.11A0.5,0.5,0,0,1,334.68,319.34Z"/><polygon class="cls-4" points="238.05 415.84 238.05 437.21 227.67 437.21 226.2 424.84 225.3 417.21 238.05 415.84"/><polygon class="cls-1" points="225.3 417.21 238.05 415.84 238.05 422.39 226.2 424.84 225.3 417.21"/><path class="cls-1" d="M242.5,456.67H188a35.24,35.24,0,0,1,.73-4,7.36,7.36,0,0,1,1.27-3c1.34-1.33,25.09-7.83,34.29-16.58a157.87,157.87,0,0,0,16.13.63,118.6,118.6,0,0,1,2,18.95C242.48,454,242.5,455.3,242.5,456.67Z"/><path class="cls-2" d="M242.5,456.67H188a35.24,35.24,0,0,1,.73-4h53.71C242.48,454,242.5,455.3,242.5,456.67Z"/><path class="cls-2" d="M294,293.84s-72.33-1.67-81.33,0-10.87,12-11.33,18.67,22,107.33,22,107.33H240s2.67-63.67,2-85.33c0,0,66.67,13,86.67,9s26-32.67,26-32.67Z"/><path class="cls-1" d="M223.33,420.34a0.5,0.5,0,0,1-.49-0.39c-0.92-4.12-22.46-100.95-22-107.48,0.78-11.39,4.73-17.83,11.74-19.12,8.95-1.66,78.48-.08,81.44,0a0.5,0.5,0,0,1,.49.51,0.51,0.51,0,0,1-.51.49c-0.72,0-72.38-1.65-81.23,0-6.5,1.2-10.18,7.33-10.92,18.21-0.44,6.39,21.76,106.18,22,107.19a0.5,0.5,0,0,1-.38.6h-0.11Z"/><path class="cls-1" d="M232,416.34a0.5,0.5,0,0,1-.5-0.46l-8.33-97a0.5,0.5,0,0,1,.5-0.54h70.45l13.19-13.84a0.5,0.5,0,0,1,.72.69l-13.33,14a0.5,0.5,0,0,1-.36.16H224.21l8.29,96.46a0.5,0.5,0,0,1-.46.54h0Z"/><path class="cls-1" d="M239.67,333.09a0.49,0.49,0,0,1-.26-0.08c-0.12-.08-12.55-7.93-20.77-19.38a0.5,0.5,0,1,1,.81-0.58c8.09,11.28,20.36,19,20.48,19.12A0.5,0.5,0,0,1,239.67,333.09Z"/><path class="cls-1" d="M294.33,319.34a0.5,0.5,0,0,1-.43-0.24c-2.33-3.81-3.08-7.51-2.23-11a14.86,14.86,0,0,1,6.23-8.45,0.5,0.5,0,0,1,.52.86,14.09,14.09,0,0,0-5.78,7.84c-0.78,3.21-.07,6.65,2.12,10.22A0.5,0.5,0,0,1,294.33,319.34Z"/><path class="cls-4" d="M320.49,127.17s-1.58,2.65-2.5,4.24,4.33,2.26,4.33,2.26Z"/><path class="cls-1" d="M322.32,134.17h-0.06c-0.68-.09-4.11-0.59-4.76-1.89a1.16,1.16,0,0,1,.05-1.12c0.92-1.59,2.5-4.25,2.5-4.25l0.86,0.51s-1.58,2.65-2.5,4.24a0.16,0.16,0,0,0,0,.17c0.27,0.55,2.28,1.12,4,1.34A0.5,0.5,0,0,1,322.32,134.17Z"/><path class="cls-4" d="M346.8,124.58c-0.76,12.7-11.41,18.21-18.48,17.15a9.55,9.55,0,0,1-2.15-.56c-7.5-3-8.55-20-5.5-28.67,2-5.67,24-10,26,7.5A25.52,25.52,0,0,1,346.8,124.58Z"/><path class="cls-1" d="M346.8,124.58c-0.76,12.7-11.41,18.21-18.48,17.15,6-4.82,7.37-16.56,7.37-16.56S341.44,124.71,346.8,124.58Z"/><polygon class="cls-4" points="342.73 134.63 343.54 150.19 333.17 150.75 333.64 133.67 342.73 134.63"/><path class="cls-1" d="M313.5,92.67s-10.33,7.5-4.33,19.67S330,119.17,330,119.17l1.67,9.25s1.83,9.75,9.92,9.75,15.92-15.67,15.83-17.75-4-7.33-4-7.33,0.25-11.33-3.83-13.25-15.92,2.42-15.92,2.42S324.67,94.17,313.5,92.67Z"/><path class="cls-4" d="M330.61,130.4s2.83-7.58,8.5-6.25,1.67,11.33-7.25,10.42Z"/><path class="cls-1" d="M332.69,132.69a0.49,0.49,0,0,1-.18,0,0.5,0.5,0,0,1-.28-0.65c0.08-.21,2-5.09,6.39-5.75a0.51,0.51,0,0,1,.57.42,0.5,0.5,0,0,1-.42.57c-3.8.58-5.59,5.08-5.61,5.12A0.5,0.5,0,0,1,332.69,132.69Z"/><path class="cls-1" d="M336.17,131.91h0a0.5,0.5,0,0,1-.49-0.51,5.29,5.29,0,0,0-.88-2.61,0.5,0.5,0,0,1,.85-0.53,6.16,6.16,0,0,1,1,3.17A0.5,0.5,0,0,1,336.17,131.91Z"/><path class="cls-1" d="M321.29,151.5s21.44-11.62,37.94-3.31l-3.37,11-30.06,2Z"/><path class="cls-1" d="M317,163A53.51,53.51,0,0,1,349,155.75c18.88,1.63,25.13,11,27.13,16.13s13,83.13,9,140.63c0,0-26.67,10-54.08,7S282.67,289,282.67,289s20.5-49,22-74S308.46,170.53,317,163Z"/><path class="cls-2" d="M327.15,158.86a0.5,0.5,0,0,1-.16-1,54.92,54.92,0,0,1,22.09-2.63,54,54,0,0,1,6.28.9,0.5,0.5,0,0,1,.39.59,0.51,0.51,0,0,1-.59.39,53,53,0,0,0-6.16-.88,53.94,53.94,0,0,0-21.69,2.59Z"/><path class="cls-4" d="M244.59,176.67c-0.25-.08-8.83-6.25-8.83-6.25s-3.33-3.92-4.83-4.33a32.26,32.26,0,0,1-6.42-2.67c-1-.75-4-4.25-5.58-4.75s-1.58,2.58.25,5,2.33,3.67,1,4.5-7.17.42-8.92-.17-6.5-3.17-7.83-3.25-1.33,2.17.17,3.17,9.08,6.67,11.92,7.42,14.33,0.5,14.33.5l10.75,9.67Z"/><path class="cls-2" d="M254.79,179.38l-10.12-5.75s-10.37,1.63-10.37,16.5l8.5,8.25S255.67,192,254.79,179.38Z"/><path class="cls-1" d="M320.17,162.17c-10.53-.21-35,38.83-35,38.83L250.5,179.83s-7.5,3-7.83,13.5c0,0,30.5,38.83,42.5,41.83s42.83-30,48.33-40.5S336.5,162.5,320.17,162.17Z"/><path class="cls-2" d="M283.24,222.75a0.5,0.5,0,0,1-.49-0.43,48.76,48.76,0,0,1,1.69-20,0.5,0.5,0,1,1,.95.32,47.68,47.68,0,0,0-1.65,19.52,0.5,0.5,0,0,1-.42.57h-0.07Z"/><path class="cls-2" d="M306,225.56a0.5,0.5,0,0,1-.32-0.89c11.65-9.62,24.07-23.9,27.38-30.24,3.42-6.53,3.45-16.56.07-23.34-2.29-4.61-6-7.44-10.6-8.21a0.5,0.5,0,1,1,.16-1c5,0.82,8.89,3.85,11.34,8.75,3.51,7,3.48,17.47-.08,24.25-3.36,6.42-15.89,20.85-27.63,30.54A0.5,0.5,0,0,1,306,225.56Z"/><path class="cls-1" d="M317.92,361l17.54,91.52a3.49,3.49,0,0,1-3.43,4.14h0a3.49,3.49,0,0,1-3.35-2.51L301.42,361h16.5Z"/><path class="cls-2" d="M263.67,361l-17.54,91.52a3.49,3.49,0,0,0,3.43,4.14h0a3.49,3.49,0,0,0,3.35-2.51L280.17,361h-16.5Z"/><path class="cls-2" d="M386.67,361l17.54,91.52a3.49,3.49,0,0,1-3.43,4.14h0a3.49,3.49,0,0,1-3.35-2.51L370.17,361h16.5Z"/><path class="cls-2" d="M332.42,361l-17.54,91.52a3.49,3.49,0,0,0,3.43,4.14h0a3.49,3.49,0,0,0,3.35-2.51L348.92,361h-16.5Z"/><polygon class="cls-2" points="396.34 354.67 390.34 366 257.75 366 252.34 354.67 396.34 354.67"/><path class="cls-1" d="M277.48,366.5h-13a0.5,0.5,0,1,1,0-1h13A0.5,0.5,0,0,1,277.48,366.5Z"/><path class="cls-1" d="M396.34,354.67L391.79,366H326.24c-0.85-2.82-1.94-6.67-3.09-11.33h73.19Z"/><path class="cls-2" d="M417,268.67c-4.33,45-20.66,86-20.66,86h-144C231.4,310,230.5,291.73,233.91,278a19.45,19.45,0,0,1,18.91-14.68h47.77s16.08-69.66,60.75-69.66a77.46,77.46,0,0,1,18.69,2.1c18.55,4.64,29.63,16.7,34.59,34.11a84,84,0,0,1,2.87,17.65s0,0.11,0,.16c0,0.65.07,1.31,0.1,2s0.05,1.11.06,1.66A138.16,138.16,0,0,1,417,268.67Z"/><path class="cls-1" d="M390.45,355.17H252.34a0.5,0.5,0,0,1-.45-0.29c-20.4-43.48-22.13-62.22-18.46-77q0.19-.77.44-1.52a0.5,0.5,0,0,1,.95.32q-0.24.71-.42,1.44c-3.61,14.53-1.89,33,18.26,76h137.8A0.5,0.5,0,0,1,390.45,355.17Z"/><path class="cls-1" d="M417,268.67c-4.33,45-20.66,86-20.66,86H323.15a241.45,241.45,0,0,1-6.37-39c-1.06-13.8-.78-28.74,2.22-43,9.67-46,33.34-68.34,61.67-64.34,0.28,0,.56.08,0.84,0.14l0.48,0.07a42.39,42.39,0,0,1,35.5,39s0,0.11,0,.16c0,0.65.07,1.31,0.1,2s0.05,1.1.06,1.66A138.16,138.16,0,0,1,417,268.67Z"/><path class="cls-2" d="M394.24,355.14H326a0.5,0.5,0,0,1,0-1h68.25A0.5,0.5,0,1,1,394.24,355.14Z"/><path class="cls-1" d="M320.93,124.35s0-2.13.69-2.31,0.53,0.59.53,0.59,3.47-.62,4.38,1.61A9.94,9.94,0,0,0,320.93,124.35Z"/><ellipse class="cls-1" cx="322.94" cy="127.22" rx="1.42" ry="1.75"/><path class="cls-1" d="M323.23,136.8a0.5,0.5,0,0,1-.08-1,5.8,5.8,0,0,0,3.09-2,0.5,0.5,0,1,1,.77.63,6.67,6.67,0,0,1-3.69,2.39h-0.08Z"/><circle class="cls-6" cx="323.23" cy="126.33" r="0.49"/><path class="cls-5" d="M311.25,50.38V71.62a9.63,9.63,0,0,0,9.62,9.63h1.63V89A2.05,2.05,0,0,0,326,90.5l9.25-9.25h24.62a9.63,9.63,0,0,0,9.63-9.63V50.38a9.63,9.63,0,0,0-9.63-9.63h-39A9.63,9.63,0,0,0,311.25,50.38Z"/><rect class="cls-1" x="321.67" y="48.5" width="38.5" height="4.83" rx="2.42" ry="2.42"/><rect class="cls-1" x="321.67" y="58.33" width="38.5" height="4.83" rx="2.42" ry="2.42"/><rect class="cls-1" x="321.67" y="68.17" width="20.5" height="4.83" rx="2.42" ry="2.42"/><path class="cls-2" d="M227.92,77.88V99.12a9.63,9.63,0,0,0,9.62,9.63h1.63v7.8a2.05,2.05,0,0,0,3.5,1.45l9.25-9.25h24.62a9.63,9.63,0,0,0,9.63-9.63V77.88a9.63,9.63,0,0,0-9.63-9.63h-39A9.63,9.63,0,0,0,227.92,77.88Z"/><circle class="cls-6" cx="272.88" cy="88.33" r="4.33"/><circle class="cls-6" cx="257.04" cy="88.33" r="4.33"/><circle class="cls-6" cx="241.21" cy="88.33" r="4.33"/><circle class="cls-2" cx="110.79" cy="116.38" r="6.38"/><circle class="cls-5" cx="115.92" cy="92.25" r="2.75"/><circle class="cls-5" cx="201.17" cy="93.75" r="5.5"/><circle class="cls-5" cx="292.67" cy="138.33" r="6.67"/><circle class="cls-2" cx="427.67" cy="266.67" r="2.99"/><circle class="cls-2" cx="383.88" cy="153.63" r="3.88"/><circle class="cls-5" cx="442.57" cy="254.37" r="3.88"/><circle class="cls-5" cx="402.42" cy="172.25" r="1.75"/><path class="cls-2" d="M96.79,95.57a0.5,0.5,0,0,1-.5-0.5V90.86a0.5,0.5,0,0,1,1,0v4.21A0.5,0.5,0,0,1,96.79,95.57Z"/><path class="cls-2" d="M103.88,98.44H99.66a0.5,0.5,0,0,1,0-1h4.21A0.5,0.5,0,1,1,103.88,98.44Z"/><path class="cls-2" d="M96.79,105.52a0.5,0.5,0,0,1-.5-0.5v-4.21a0.5,0.5,0,0,1,1,0V105A0.5,0.5,0,0,1,96.79,105.52Z"/><path class="cls-2" d="M93.93,98.44H89.71a0.5,0.5,0,0,1,0-1h4.21A0.5,0.5,0,1,1,93.93,98.44Z"/><path class="cls-2" d="M408.13,157.57a0.5,0.5,0,0,1-.5-0.5v-4.21a0.5,0.5,0,1,1,1,0v4.21A0.5,0.5,0,0,1,408.13,157.57Z"/><path class="cls-2" d="M415.21,160.44H411a0.5,0.5,0,0,1,0-1h4.21A0.5,0.5,0,0,1,415.21,160.44Z"/><path class="cls-2" d="M408.13,167.52a0.5,0.5,0,0,1-.5-0.5v-4.21a0.5,0.5,0,0,1,1,0V167A0.5,0.5,0,0,1,408.13,167.52Z"/><path class="cls-2" d="M405.26,160.44H401a0.5,0.5,0,0,1,0-1h4.21A0.5,0.5,0,0,1,405.26,160.44Z"/><path class="cls-2" d="M197.55,151.13a0.5,0.5,0,0,1-.5-0.5v-4.21a0.5,0.5,0,0,1,1,0v4.21A0.5,0.5,0,0,1,197.55,151.13Z"/><path class="cls-2" d="M204.63,154h-4.21a0.5,0.5,0,0,1,0-1h4.21A0.5,0.5,0,1,1,204.63,154Z"/><path class="cls-2" d="M197.55,161.08a0.5,0.5,0,0,1-.5-0.5v-4.21a0.5,0.5,0,0,1,1,0v4.21A0.5,0.5,0,0,1,197.55,161.08Z"/><path class="cls-2" d="M194.68,154h-4.21a0.5,0.5,0,1,1,0-1h4.21A0.5,0.5,0,1,1,194.68,154Z"/></svg>