 <!DOCTYPE svg PUBLIC "-//W3C//DTD SVG 1.1//EN" "http://www.w3.org/Graphics/SVG/1.1/DTD/svg11.dtd">
<svg id="f13aa31e-5c2e-4977-98ac-a9b84f62c06a" data-name="Layer 1" xmlns="http://www.w3.org/2000/svg" width="865.76" height="682.89" viewBox="0 0 865.76 682.89">
<defs>
<style xmlns="http://www.w3.org/1999/xhtml">*, ::after, ::before { box-sizing: border-box; }
img, svg { vertical-align: middle; }
</style>
<style xmlns="http://www.w3.org/1999/xhtml">*, body, html { -webkit-font-smoothing: antialiased; }
img, svg { max-width: 100%; }
</style>
</defs>
<path d="M599.07,608a120.47,120.47,0,0,0,18.42-25.62s10.44.82,19,1.8l-2.92,13.19S614.27,609.87,599.07,608Z" fill="#f9b499"/>
<path d="M620.63,583.26s13.25,2.27,23,.73l5.16-58.65q-5.82,10.78-11.55,22.32C631.17,559.83,625.66,571.73,620.63,583.26Z" fill="#2f2e41" data-secondary="true"/>
<path d="M620.63,583.26l8.12,1s13.14-16.68,17.41-29.29l2.61-28.66S627.88,563.07,620.63,583.26Z" opacity="0.2"/>
<rect x="587.3" y="418.93" width="227.91" height="17.12" fill="#bcbec0"/>
<rect x="580.25" y="404.69" width="242.01" height="17.12" fill="#d1d3d4"/>
<rect x="587.3" y="436.05" width="9.73" height="177.22" fill="#d1d3d4"/>
<rect x="805.48" y="436.05" width="9.73" height="177.22" fill="#d1d3d4"/>
<path d="M358.43,584.45l1.86-11.34,29.94,10.33v6.09S379.4,601.78,364,593.6a2.68,2.68,0,0,1-1.33-3C363.12,588.6,363,585.48,358.43,584.45Z" fill="#f9b499"/>
<path d="M394.5,600.68c-9.77,10.17-39.88,13.88-39.88,13.88-38.5,2.54-42-5.67-42-5.67-2.94-6.06,24.43-10,24.43-10,13.49-3.12,13.68-8,13.68-8,.59-8.6,7.72-6.45,7.72-6.45,4.71.9,4.77,4.11,4.28,6.17a2.72,2.72,0,0,0,1.3,3c15.05,8.13,26.22-4.1,26.22-4.1C395,593.84,394.5,600.68,394.5,600.68Z" fill="#0071f2" data-primary="true"/>
<path d="M392,622.18H371.83a5.08,5.08,0,0,0-3-5.2,2.89,2.89,0,0,0-2.52.07c-20.88,10.5-49.42,1.61-49.42,1.61-7-1.76-4.3-9.77-4.3-9.77s3.52,8.21,42,5.67c0,0,30.11-3.71,39.88-13.88C396.74,609.36,392,622.18,392,622.18Z" fill="#2f2e41" data-secondary="true"/>
<path d="M530.63,482.37c-11,18.14-123.38,2.2-123.38,2.2-.17,9-2.9,26.38-6.1,44.1v0c-4.88,27-10.92,54.74-10.92,54.74-20.81,1.42-31.69-9.94-31.69-9.94-1-36.89,5.2-84.67,5.2-84.67,1.89-50.16,21.76-54.41,21.76-54.41h90.42c.25.68.54,1.37.86,2.06,10.19,22.66,49.69,43.71,53.55,45.72,0,0,0,0,0,0l.26.13Z" fill="#2f2e41" data-secondary="true"/>
<path d="M366,432.24c3.42.69,17.13,3.86,25.29,11.67l9-9.49h75.67l-3.12-13.75-50.19-28.29a14.93,14.93,0,0,0-9.15-2.07c-5.63.58-15.09,1.37-22.58,11.62l-25.15,29.54A.47.47,0,0,0,366,432.24Z" fill="#2f2e41" data-secondary="true"/>
<path d="M366,432.24c3.42.69,17.13,3.86,25.29,11.67l9-9.49h75.67l-3.12-13.75-50.19-28.29a14.93,14.93,0,0,0-9.15-2.07c-5.63.58-15.09,1.37-22.58,11.62l-25.15,29.54A.47.47,0,0,0,366,432.24Z" opacity="0.2"/>
<rect x="492.77" y="506.27" width="8.15" height="101.08" fill="#d1d3d4"/>
<rect x="486.25" y="544.58" width="21.19" height="43.61" fill="#bcbec0"/>
<path d="M562.88,603.68a188.77,188.77,0,0,0-35-14.21,106.13,106.13,0,0,0-25.19-4.29c-48.27-2.15-75.15,20.54-75.15,20.54l3.67,4.07s26.9-19.6,65.62-18.75c0,0,33.83.41,61.95,16.31Z" fill="#d1d3d4"/>
<circle cx="426.02" cy="613" r="9.17" fill="#bcbec0"/>
<circle cx="496.85" cy="613.27" r="9.17" fill="#bcbec0"/>
<rect x="130.74" y="39.77" width="415.63" height="296.99" fill="#2f2e41" data-secondary="true"/>
<rect x="140.39" y="49.42" width="399.55" height="278.16" fill="#fff"/>
<rect x="170.16" y="120.36" width="16.34" height="36.36" fill="#0071f2" data-primary="true"/>
<rect x="170.16" y="120.36" width="16.34" height="36.36" fill="#fff" opacity="0.3"/>
<rect x="191.37" y="104.52" width="13.6" height="52.2" fill="#0071f2" data-primary="true"/>
<rect x="191.37" y="104.52" width="13.6" height="52.2" fill="#fff" opacity="0.5"/>
<rect x="209.85" y="89.8" width="15.95" height="67.43" fill="#0071f2" data-primary="true"/>
<rect x="209.85" y="89.8" width="15.95" height="67.43" fill="#fff" opacity="0.7"/>
<polygon points="170.49 97.33 169.83 96.47 188.85 81.84 200.28 90.76 219.88 74.49 220.57 75.33 200.3 92.15 188.85 83.22 170.49 97.33" fill="#0071f2" data-primary="true"/>
<g opacity="0.5">
<polygon points="170.49 97.33 169.83 96.47 188.85 81.84 200.28 90.76 219.88 74.49 220.57 75.33 200.3 92.15 188.85 83.22 170.49 97.33" fill="#fff"/>
</g>
<polygon points="223.45 71.39 222.28 78.72 216.12 73.15 223.45 71.39" fill="#0071f2" data-primary="true"/>
<polygon points="223.45 71.39 222.28 78.72 216.12 73.15 223.45 71.39" fill="#fff" opacity="0.5"/>
<rect x="263.35" y="293.22" width="28.42" height="24.36" fill="#0071f2" data-primary="true"/>
<rect x="263.35" y="293.22" width="28.42" height="24.36" fill="#fff" opacity="0.5"/>
<polygon points="286.83 289.88 260.88 280.63 270.15 253.51 296.71 261.35 286.83 289.88" fill="#0071f2" data-primary="true"/>
<rect x="258.08" y="106.77" width="102.16" height="1.09" fill="#bcbec0"/>
<rect x="316.79" y="93.32" width="43.45" height="1.09" fill="#bcbec0"/>
<rect x="258.08" y="133.68" width="102.16" height="1.09" fill="#bcbec0"/>
<rect x="316.79" y="120.23" width="43.45" height="1.09" fill="#bcbec0"/>
<rect x="316.79" y="149.13" width="43.45" height="1.09" fill="#bcbec0"/>
<polygon points="376.84 183.56 378.14 210.54 406.5 209.1 403.69 181.18 376.84 183.56" fill="#e6e7e8"/>
<polygon points="394.18 101.31 396.76 130.62 425.62 128.69 423.04 101.31 394.18 101.31" fill="#2f2e41" data-secondary="true"/>
<circle cx="391.56" cy="123.29" r="9.02" fill="#0071f2" data-primary="true"/>
<rect x="338.52" y="220.23" width="59.97" height="1" fill="#bcbec0"/>
<rect x="338.52" y="224.54" width="38.33" height="1" fill="#bcbec0"/>
<path d="M561,310l5.21,17.54s-15.13,2.18-26.28,9.19l-2.11-22L552,297.64Z" fill="#f9b499"/>
<path d="M566.22,327.58v92.65c-.07.21-.13.42-.19.63-.31,1.09-1,3.53-2.11,6.86-.35,1.09-.69,2.17-1,3.22-5.48,16.65-16.86,47.48-27.83,53.63l-.14-.06c-2.65-1.26-42.81-20.58-56.62-45.16a40.92,40.92,0,0,1-2.05-4.15h0c-.12-.25-.23-.51-.33-.77a2,2,0,0,1,.13-1.74,2.06,2.06,0,0,1,.46-.57s0,0,0,0a71.53,71.53,0,0,0,13.89-16.62.64.64,0,0,0,.07-.12,99.27,99.27,0,0,0,9.12-18.92,145.27,145.27,0,0,1,10.53-22.58c8.25-14.51,21-34.53,29.81-37.08a59,59,0,0,1,19.63-8.24A46.7,46.7,0,0,1,566.22,327.58Z" fill="#0071f2" data-primary="true"/>
<path d="M530.63,482.37c-11,18.14-123.38,2.2-123.38,2.2-.17,9-2.9,26.38-6.1,44.1l-.9-53.79c37.1,10.2,57.88,0,57.88,0,13.85-9-11-40.46-11-40.46h28.8c.25.68.54,1.37.86,2.06,9.54,20.41,49.69,43.53,53.55,45.72,0,0,0,0,0,0s.21.11.26.13Z" opacity="0.2"/>
<path d="M349.3,451.24S367.21,440,368.87,432.9c0,0,15.19,3.57,22.41,11l-8.56,12.63s1.16-13.45-24.28-5.7C358.44,450.84,355.42,451.65,349.3,451.24Z" fill="#f9b499"/>
<path d="M316.29,456.54s21.19-7.33,40.35,0c0,0,23.23-3.67,22.42,11.82,0,0,3.26,0,3.66-11.82,0,0,1.11-14.15-23-6.16a10.29,10.29,0,0,1-2.75.52l-7.72.34S320.36,449.21,316.29,456.54Z" fill="#0071f2" data-primary="true"/>
<path d="M316.29,456.54s-1.06.61-2.56,1.61c-4.92,3.26-14.69,10.73-8.45,15.1,0,0,7.61,7.15,22.13,8.09a44.45,44.45,0,0,0,20.66-4,17.36,17.36,0,0,1,10.36-1.22s15.52,1.8,20.7-5.69a6,6,0,0,0,1.05-4.25c-.51-3.9-4-11.46-23.54-9.63C356.64,456.54,336.26,446.76,316.29,456.54Z" fill="#bfbfbf"/>
<rect x="435.79" y="491.04" width="107.11" height="17.95" rx="3.78" fill="#0071f2" data-primary="true"/>
<circle cx="562.88" cy="609.79" r="9.17" fill="#bcbec0"/>
<polygon points="400.25 391.31 459.33 427.49 465.44 416.3 420.56 388.28 400.25 391.31" fill="#0071f2" data-primary="true"/>
<polygon points="400.25 391.31 407.47 308.3 427.51 317.2 420.56 388.28 400.25 391.31" fill="#0071f2" data-primary="true"/>
<polygon points="400.25 391.31 407.47 308.3 427.51 317.2 420.56 388.28 400.25 391.31" fill="#fff" opacity="0.5"/>
<path d="M566.22,327.58v92.65c-.07.21-.13.42-.19.63-.71,2.37-1.42,4.66-2.11,6.86-.35,1.09-.69,2.17-1,3.22-16.35,50.37-27.83,53.63-27.83,53.63l-.14-.06c-37.73-18.88-52.84-39.79-52.84-39.79a60.88,60.88,0,0,1-3.78-5.37,19.7,19.7,0,0,1-2.05-4.15h0a3.81,3.81,0,0,1-.2-2.51.93.93,0,0,1,.46-.57s0,0,0,0c8.21-5.86,13.3-15.45,13.89-16.62a.64.64,0,0,0,.07-.12c8.43-1.4,11.51-5.58,11.51-5.58a31.27,31.27,0,0,1,12.77-15.25l22.11,22.55c24.71-20.09,23.06-80.25,22.7-88.54A46.7,46.7,0,0,1,566.22,327.58Z" opacity="0.2"/>
<path d="M537.83,358.64c-1.21,2.29-2.53,4.52-3.86,6.74s-2.71,4.4-4.1,6.57-2.83,4.33-4.32,6.45l-2.23,3.17c-.77,1-1.52,2.09-2.33,3.11.6-1.15,1.26-2.27,1.89-3.4l2-3.34c1.32-2.22,2.71-4.4,4.11-6.57s2.83-4.33,4.31-6.45S536.24,360.69,537.83,358.64Z" opacity="0.2"/>
<path d="M566.22,327.58S564,317,571.43,317.2c0,0,9.47-5.77,13.46,39.08,0,0-.5,72-5.49,76.62,0,0-13.18,7.42-13.18-12.67Z" fill="#0071f2" data-primary="true"/>
<path d="M543,504.32l-.13-1c.23,0,22.77-3.25,28.1-25.08.16-.55,14.92-53.93,13.45-111.49l1,0c1.48,57.72-13.33,111.24-13.48,111.78C566.42,501,543.2,504.29,543,504.32Z" fill="#2f2e41" data-secondary="true"/>
<path d="M584.89,576.27s13.76,14.62,31.39,17.25c0,0,18.44-45.38,43.35-87.39,0,0,14.1-18,26.82-30.75,0,0,35.22-40.77,40.84-58.27,0,0,3.75-14.9,0-25.76,0,0-56.14,3.33-68.95-17.64l-8.23,25.22-23.33,67.45s-3,4.87-3,18.19Z" fill="#2f2e41" data-secondary="true"/>
<path d="M655.93,414.63c1.36-6.45,4.42-24-.54-31.86l3-9.06s7.83,20,68.95,17.64c0,0,5.8,16.23-4,34.39,0,0-13.8,26.7-63.69,80.39,0,0,44.53-55.2,44.43-67.32,0,0,1.47-7.78-4-11.32,0,0-5.81-4.56-6.4-17.68a8.42,8.42,0,0,0-.91-3.37c-2.21-4.4-8.8-15-21-15.13l-28.93,57.08-19,36.18a35.5,35.5,0,0,1,3-18.19l14.82-23.07a131.93,131.93,0,0,0,13-24.28A27,27,0,0,0,655.93,414.63Z" opacity="0.2"/>
<path d="M552.07,609.79s26-17.36,32.82-33.52c0,0,10.58,9.88,17.62,12.76a55.8,55.8,0,0,1-5.48,9.2S569.33,614.52,552.07,609.79Z" fill="#f9b499"/>
<path d="M582.47,620.11s16.29,1.22,26-2.43c0,0,20.78,4.33,27-6.62a7.5,7.5,0,0,0,1-3.74v-9.91s-.1-1.48-2.92,0c0,0-21.65,12.18-45,9.05-1.25,0-7.3,13.85-7.3,13.85" fill="#0071f2" data-primary="true"/>
<path d="M582.47,620.11s16.29,1.22,26-2.43c0,0,20.78,4.33,27-6.62a7.5,7.5,0,0,0,1-3.74v-9.91s-.1-1.48-2.92,0c0,0-21.65,12.18-45,9.05-1.25,0-7.3,13.85-7.3,13.85" opacity="0.2"/>
<path d="M442.21,147.83c-.44,0-16.79,7.55-17.76,26.14-.89,17.1,10.92,33.31,12.45,32.25,1.87-1.31-1.31-12,2.33-24.14,1.28-4.32,6.91-8.15,6.91-8.15Z" fill="#0071f2" data-primary="true"/>
<path d="M446.15,173.92a25.22,25.22,0,0,0-4.48,4c-2.44-5.43-7-15.57-9.9-22.13a30,30,0,0,1,10.44-8Z" opacity="0.1" style="isolation:isolate"/>
<path d="M483.83,147.86c.43,0,16.78,7.57,17.72,26.16.87,17.1-11,33.3-12.5,32.22-1.86-1.31,1.33-12-2.28-24.14-1.28-4.32-6.91-8.16-6.91-8.16Z" fill="#0071f2" data-primary="true"/>
<path d="M494.32,155.93c-3,6.63-7.5,16.78-9.91,22.15a25.86,25.86,0,0,0-4.55-4.13l4-26.08A29.76,29.76,0,0,1,494.32,155.93Z" opacity="0.1" style="isolation:isolate"/>
<path d="M475.39,190.59H450.71S439.09,169.81,440.45,145a120.83,120.83,0,0,1,7.82-35.13c5.36-14.25,12-24.34,14.84-24.34s9.47,10.11,14.82,24.35A121.79,121.79,0,0,1,485.69,145C487.06,169.82,475.39,190.59,475.39,190.59Z" fill="#ebebeb"/>
<path d="M477.85,141.83a14.23,14.23,0,1,1-14.22-14.24,14.24,14.24,0,0,1,14.22,14.24Z" fill="#c7c7c7"/>
<path d="M477.34,140.39a14.23,14.23,0,1,1-14.23-14.24,14.23,14.23,0,0,1,14.23,14.24Z" fill="#0071f2" data-primary="true"/>
<circle cx="463.12" cy="140.38" r="9.87" fill="#fff"/>
<path d="M473,140.37a9.93,9.93,0,0,1-.67,3.58l-5.62,5.63a9.89,9.89,0,0,1-6.22.3l12.14-12.14A9.77,9.77,0,0,1,473,140.37Z" fill="#ebebeb"/>
<path d="M464.58,130.61l-11.24,11.21a10.14,10.14,0,0,1-.11-1.46,9.87,9.87,0,0,1,9.88-9.84A12.08,12.08,0,0,1,464.58,130.61Z" fill="#ebebeb"/>
<path d="M471.75,135.6,458.34,149a7.43,7.43,0,0,1-.75-.49l13.68-13.68A5.41,5.41,0,0,1,471.75,135.6Z" fill="#ebebeb"/>
<path d="M477.94,109.91H448.28c5.35-14.26,12-24.35,14.83-24.35S472.59,95.67,477.94,109.91Z" fill="#0071f2" data-primary="true"/>
<path d="M453.39,106.82a.83.83,0,1,1-.83-.83h0A.83.83,0,0,1,453.39,106.82Z" fill="#fff"/>
<path d="M458.67,106.83a.84.84,0,1,1-.83-.83h0A.83.83,0,0,1,458.67,106.83Z" fill="#fff"/>
<path d="M463.94,106.83a.83.83,0,1,1-1.66,0,.81.81,0,0,1,.83-.82.83.83,0,0,1,.83.83Z" fill="#fff"/>
<path d="M469.22,106.83a.83.83,0,1,1-.83-.83.83.83,0,0,1,.83.83Z" fill="#fff"/>
<path d="M474.5,106.84a.84.84,0,1,1-.84-.83.84.84,0,0,1,.84.83Z" fill="#fff"/>
<path d="M453.34,186.78a.83.83,0,1,1-.83-.83.83.83,0,0,1,.83.83Z" fill="#c7c7c7"/>
<path d="M458.63,186.78a.83.83,0,1,1-.83-.83.84.84,0,0,1,.83.83Z" fill="#c7c7c7"/>
<path d="M463.91,186.79a.84.84,0,1,1-.84-.83h0a.83.83,0,0,1,.83.82Z" fill="#c7c7c7"/>
<path d="M469.18,186.79a.83.83,0,1,1-.83-.83.83.83,0,0,1,.83.83Z" fill="#c7c7c7"/>
<path d="M474.46,186.79a.83.83,0,1,1-.83-.83.83.83,0,0,1,.83.83Z" fill="#c7c7c7"/>
<polygon points="473.11 198.01 453.04 197.99 452.1 190.58 474.06 190.59 473.11 198.01" fill="#0071f2" data-primary="true"/>
<polygon points="474.06 190.6 473.59 194.2 452.46 193.41 452.11 190.58 474.06 190.6" opacity="0.1" style="isolation:isolate"/>
<path d="M417.28,234.13a3.54,3.54,0,1,1-3.54-3.55h0A3.54,3.54,0,0,1,417.28,234.13Z" fill="#0071f2" opacity="0.6" data-primary="true"/>
<circle cx="419.86" cy="227.35" r="1.73" fill="#0071f2" opacity="0.6" data-primary="true"/>
<path d="M497.37,232.4a1.73,1.73,0,1,1-1.72-1.73,1.73,1.73,0,0,1,1.72,1.73Z" fill="#0071f2" opacity="0.6" data-primary="true"/>
<path d="M531.94,248.16a1.73,1.73,0,1,1-1.72-1.72h0A1.72,1.72,0,0,1,531.94,248.16Z" fill="#0071f2" opacity="0.6" data-primary="true"/>
<path d="M529.3,253.21a2.06,2.06,0,0,1-2.06,2.06H398.89a2.06,2.06,0,0,1,0-4.12,2,2,0,0,1,.49.06,4.06,4.06,0,0,1,7-2.84h0c0-.25,0-.49,0-.76a7.67,7.67,0,0,1,11-6.88,5.46,5.46,0,0,1,10.55-1.66,7.67,7.67,0,0,1,8-3.42,9.77,9.77,0,0,1-.16-1.79A10.37,10.37,0,0,1,452.85,226a2.09,2.09,0,0,1,1.83-1.12,2.37,2.37,0,0,1,.79.16l1.94-27h11.31l1.92,27a2.13,2.13,0,0,1,.78-.16,2.06,2.06,0,0,1,1.83,1.11,10.37,10.37,0,0,1,17,9.65,8,8,0,0,1,1.47-.14,7.64,7.64,0,0,1,6.49,3.58,5.47,5.47,0,0,1,10.55,1.66,7.75,7.75,0,0,1,3.38-.78,7.66,7.66,0,0,1,7.68,7.64v0a5,5,0,0,1,0,.76h0a4.06,4.06,0,0,1,7,2.87,2,2,0,0,1,.49-.06A2.06,2.06,0,0,1,529.3,253.21Z" fill="#0071f2" opacity="0.6" style="isolation:isolate" data-primary="true"/>
<polygon points="496.76 236.27 494.09 236.76 493.49 239.57 492.89 236.76 490.23 236.27 492.88 235.62 493.49 232.96 494.1 235.62 496.76 236.27" fill="#fdfdfd"/>
<polygon points="470.8 213.7 468.13 214.2 467.53 217.01 466.93 214.2 464.26 213.7 466.92 213.05 467.53 210.39 468.14 213.05 470.8 213.7" fill="#fdfdfd"/>
<polygon points="432.01 241.62 430.51 241.9 430.18 243.47 429.85 241.9 428.36 241.62 429.84 241.26 430.18 239.77 430.52 241.26 432.01 241.62" fill="#fdfdfd"/>
<polygon points="512.28 246.31 510.78 246.59 510.45 248.16 510.12 246.59 508.63 246.31 510.11 245.95 510.45 244.47 510.79 245.95 512.28 246.31" fill="#fdfdfd"/>
<polygon points="411.48 251.83 409.98 252.1 409.65 253.67 409.32 252.1 407.83 251.83 409.31 251.46 409.65 249.98 409.99 251.46 411.48 251.83" fill="#fdfdfd"/>
<polygon points="476.37 250.52 474.88 250.79 474.54 252.36 474.21 250.79 472.72 250.52 474.2 250.15 474.54 248.67 474.88 250.15 476.37 250.52" fill="#fdfdfd"/>
<polygon points="465.44 209.43 463.95 209.7 463.62 211.27 463.29 209.7 461.79 209.42 463.28 209.06 463.62 207.57 463.96 209.06 465.44 209.43" fill="#fdfdfd"/>
<path d="M515.81,249.71a.44.44,0,0,0-.39.48.43.43,0,0,0,.39.39.44.44,0,0,0,.38-.48A.45.45,0,0,0,515.81,249.71Z" fill="#fdfdfd"/>
<path d="M459.69,204a.43.43,0,0,0,0,.86.44.44,0,0,0,.39-.48A.43.43,0,0,0,459.69,204Z" fill="#fdfdfd"/>
<path d="M422.78,251.83a.43.43,0,1,0,.38.38A.43.43,0,0,0,422.78,251.83Z" fill="#fdfdfd"/>
<path d="M450.19,245.88a.44.44,0,0,0-.39.48.39.39,0,1,0,.77-.09A.44.44,0,0,0,450.19,245.88Z" fill="#fdfdfd"/>
<path d="M505,241.94a.31.31,0,1,0,.27.27A.32.32,0,0,0,505,241.94Z" fill="#fdfdfd"/>
<path d="M467.17,237.35a.31.31,0,1,0,.31.31A.31.31,0,0,0,467.17,237.35Z" fill="#fdfdfd"/>
<path d="M439.5,231.37a.32.32,0,0,0-.27.35.3.3,0,0,0,.27.26.3.3,0,0,0,.27-.34A.32.32,0,0,0,439.5,231.37Z" fill="#fdfdfd"/>
<path d="M486.84,232.62a.83.83,0,1,0,.83.83A.83.83,0,0,0,486.84,232.62Z" fill="#fdfdfd"/>
<path d="M443.41,228.56a.83.83,0,1,0,.83.83A.83.83,0,0,0,443.41,228.56Z" fill="#fdfdfd"/>
<path d="M522.55,421.8l4.15-13.91s9.86,12.5,25.32,16.8c0,0-11,30-24.78,25.56l-51.32-15.83s-14.95.82-19.05-6.93c0,0-25.54-12.3-21.08-19.6,0,0,22.51-4.47,37,12.78Z" fill="#f9b499"/>
<path d="M522.84,446.14s13.32-4.4,7.79-18.65l-5.52-14.24,1.59-5.36S539,422,552,424.69c0,0-10.17,30.06-24.78,25.56l-9.12-2.82Z" fill="#f7a48b"/>
<path d="M117.73,493.6,113,620.07c6.74,3,20.07-4.64,20.07-4.64l23.26-124.31Z" fill="#f9b499"/>
<path d="M107.74,614.31,106.48,632l53.19,1.52c5.14-19.21-26.61-16.57-26.61-16.57v-1.52A30.41,30.41,0,0,1,107.74,614.31Z" fill="#0071f2" data-primary="true"/>
<path d="M107.74,614.31,106.48,632l53.19,1.52c5.14-19.21-26.61-16.57-26.61-16.57v-1.52A30.41,30.41,0,0,1,107.74,614.31Z" opacity="0.2"/>
<path d="M125.42,491l-12,138.54-20.59-.49S79.6,526.15,79,518.44s2.39-28.5,2.89-29.77Z" fill="#f9b499"/>
<path d="M124.52,500.56c-.08.86-.18,2-.3,3.48-.31,3.1-.72,7.44-1.23,12.79-1,10.81-2.47,25.79-3.89,42.23s-2.62,31.45-3.45,42.27c-.41,5.35-.76,9.79-1,12.83-.12,1.44-.3,2.61-.3,3.48a6.19,6.19,0,0,1-.17,1.21q0-.61,0-1.23c0-.86.08-2,.15-3.49.19-3.1.44-7.48.75-12.83.7-10.83,1.78-25.8,3.22-42.3s2.95-31.44,4.13-42.23c.66-5.33,1.16-9.72,1.52-12.76.19-1.46.34-2.62.44-3.48a6.86,6.86,0,0,1,.22-1.2A6.36,6.36,0,0,1,124.52,500.56Z" fill="#f7a48b"/>
<path d="M91.53,228.27s9.26-.82,11.2-.23a222.5,222.5,0,0,0,45,8.6,16.88,16.88,0,0,0,7.83-.62,6.7,6.7,0,0,0,4-4.44c-.13,1.52-.13,3-.13,4.56L174,240.28c2.66-4.44,2.52-10.09,1.14-15.08s-3.89-9.59-5.79-14.4c-7.46-19-5.41-38-4.56-60.25l-71.63-.75C88,172.79,86.23,205.43,91.53,228.27Z" fill="#2f2e41" data-secondary="true"/>
<path d="M221.45,270.15l1.22,13.13,13.41-3.48s25.85,1.91,28.19,1.52a9.69,9.69,0,0,0,2.9-.75l.35-1.29a25.7,25.7,0,0,0,5.88-.19c2.86-.51.64-1.93,2.86-2.47a7.57,7.57,0,0,0,2.93-1.14l.13-2.2c2.78-.93,0-3.78,0-3.78L262.68,269c-2.28-.9-13.53-.24-13.8-.76s6.35-1.52,9.92-2a1.19,1.19,0,0,0,.26,0,2,2,0,0,0,1.38-2.42c-2.85-2.57-9.51-.43-11.56-.56s-11.69-1.05-13.94,0a8.56,8.56,0,0,0-3.37,4.37Z" fill="#f9b499"/>
<path d="M239.05,267.45a14.15,14.15,0,0,1,4.56,1.94,10.52,10.52,0,0,1,3.46,3.65,3.87,3.87,0,0,1,.67,2,20.09,20.09,0,0,1-1.08-1.73,11.8,11.8,0,0,0-3.42-3.33,37.1,37.1,0,0,0-6.3-2.75A4.89,4.89,0,0,1,239.05,267.45Z" fill="#f7a48b"/>
<path d="M262.11,277.29a10,10,0,0,1,4.12.73c1,.69,1.08,1.52,1,1.52a3.57,3.57,0,0,0-1.22-1,12.7,12.7,0,0,0-3.93-.49,25,25,0,0,1-5.78-.7A25.75,25.75,0,0,1,262.11,277.29Z" fill="#f7a48b"/>
<path d="M260.05,273.92a44.47,44.47,0,0,0,6.52.45,29.84,29.84,0,0,1,3.66.11,9.72,9.72,0,0,1,2.95.76,3.73,3.73,0,0,1,1.65,1.23c.29.47.15.79.09.78s0-.29-.3-.63a4,4,0,0,0-1.63-.94,16.92,16.92,0,0,0-6.41-.64,30,30,0,0,1-6.61-.65,11.23,11.23,0,0,1-2.66-.7A11,11,0,0,1,260.05,273.92Z" fill="#f7a48b"/>
<path d="M262.68,270.88c1.79,0,4.25.12,7,.27,1.36.16,2.65.05,3.86.16a14.59,14.59,0,0,1,3.14.51,4.67,4.67,0,0,1,2,1c.35.39.41.7.35.73s-.15-.24-.53-.53a4.86,4.86,0,0,0-1.9-.7,18.27,18.27,0,0,0-3-.35c-1.17-.11-2.48,0-3.84-.11-2.72-.15-5.2-.32-7-.47a12.09,12.09,0,0,1-2.87-.38A12.68,12.68,0,0,1,262.68,270.88Z" fill="#f7a48b"/>
<polygon points="114.71 199.66 108.51 199.05 106.12 210.59 111.04 225.64 119.74 229.31 135.54 232.81 151.15 232.48 154.49 225.94 142.17 208.98 114.71 199.66" fill="#f9b499"/>
<path d="M179.33,255.09A48.76,48.76,0,0,1,181.18,275c-1.21,11.61-6.94,15.09-6.94,15.09l3,68.95-75.79-12.58-9.24-92.28,21-32.79s23.27,6.82,32.42,7,8.4-4.89,8.4-4.89Z" fill="#e6e7e8"/>
<path d="M179.24,345.17s-2.05,13.89-2.8,33S154.71,499,154.71,499l-74.27-4s-9.94-80.9-13.92-106.66,12-61,12-61Z" fill="#2f2e41" data-secondary="true"/>
<path d="M127.1,430c2.43,22.37,4.21,40.6,4,40.6s-2.31-18.13-4.74-40.49-4.18-40.61-4-40.61S124.67,407.65,127.1,430Z" opacity="0.2"/>
<path d="M127.33,311.36a3.59,3.59,0,0,1,1.41-2.1,3.93,3.93,0,1,1,3.33,7,3.81,3.81,0,0,1-3.64-.82,3.55,3.55,0,0,1-1.2-2.23,1.64,1.64,0,0,1,0-.93c.06,0,.06.34.19.88a3.6,3.6,0,0,0,1.25,1.92,3.42,3.42,0,0,0,3.17.59,3.34,3.34,0,0,0,.34-6.26,3.41,3.41,0,0,0-3.22.26,3.63,3.63,0,0,0-1.45,1.78c-.19.51-.28.83-.28.83A1.5,1.5,0,0,1,127.33,311.36Z" fill="#263238"/>
<path d="M142.19,201.35l-.39,8.52s12.18,16.58,17,24.24,13.51,22.93,16.55,28.56c8.63,16.23-3.22,27.2-3.22,27.2l-.6,11.07-2.58,84,17.1-4.56L182.44,310h0a8.25,8.25,0,0,0,10.81,2.78c14.6-7.86,41.57-31.3,41.57-31.3l-9.11-17.37L192.28,279v-.82c0-.81-4.73-9-4.73-9l.24-4.38c.08-1.64-6.23-11.84-6.23-11.84s-1.55-16.8-3.92-23.78-10.59-17.27-12.72-18.49-19.45-5.15-19.45-5.15Z" fill="#0071f2" data-primary="true"/>
<path d="M185.2,298.63a32.65,32.65,0,0,1,.8-9,20.85,20.85,0,0,1,3.56-8.29,7.88,7.88,0,0,1,2.08-1.82,2.1,2.1,0,0,1,.94-.38,11.57,11.57,0,0,0-2.64,2.49,22.8,22.8,0,0,0-3.29,8.15,39,39,0,0,0-1,8.81,36.16,36.16,0,0,1,0,3.71A12.47,12.47,0,0,1,185.2,298.63Z" fill="#263238"/>
<path d="M179.5,279.75a19.57,19.57,0,0,0,.92-9.11,52.49,52.49,0,0,0-4-13.24c-2-4.86-4-10.3-6.52-15.77a50.66,50.66,0,0,0-4.36-7.6c-1.63-2.31-3.48-4.35-5.2-6.34a64.85,64.85,0,0,1-7.81-11.59c-2.1-3.39-3.86-6-5.14-7.86l-1.52-2.08a3.36,3.36,0,0,1-.48-.74,4.72,4.72,0,0,1,.59.67c.34.45.84,1.12,1.52,2,1.34,1.78,3.24,4.39,5.33,7.77a66.28,66.28,0,0,0,7.88,11.42q2.79,3.06,5.27,6.37a52.74,52.74,0,0,1,4.42,7.72c2.57,5.53,4.51,11,6.47,15.83a51,51,0,0,1,3.94,13.41,19.08,19.08,0,0,1-1.16,9.34,13.67,13.67,0,0,1-1.18,2.28,4.14,4.14,0,0,1-.55.7A24.89,24.89,0,0,0,179.5,279.75Z" fill="#fff" opacity="0.2"/>
<path d="M183.2,318.44c-.19-1.06-.44-2.4-.71-3.92-.58-3.3-1.44-7.86-2.17-12.95a71.15,71.15,0,0,1-.85-13.12c0-.84.09-1.6.15-2.27s.12-1.24.2-1.7a5.86,5.86,0,0,1,.3-1.44c.11,0-.18,2.08-.18,5.42a88.69,88.69,0,0,0,1,13c.76,5,1.46,9.5,2,13,.23,1.68.41,3,.5,4a6.36,6.36,0,0,1,0,1.51A6.56,6.56,0,0,1,183.2,318.44Z" fill="#263238"/>
<g opacity="0.3">
<path d="M192.35,279c-2.93,2.2-3.81,5-4.8,8.54s-1.35,7.2-2.19,10.77a1.57,1.57,0,0,1-.29.69c-.6.66-1.68.06-2.12-.72a8.09,8.09,0,0,1-.35-5.38,25.74,25.74,0,0,1,2.84-8.69,10.43,10.43,0,0,1,6.79-5.24"/>
</g>
<path d="M108.75,206.83c0,.88,12.28,28.95,17.08,41.91s11.23,43.6,12.61,55.51-4.15,77.42-4.15,77.42L68.33,359c2.13-18.89,20-56.87,20-56.87l-7.1-39.28S66,214.17,69.1,210.58s27.76-8.43,27.76-8.43l4.3-4.68,8.71-1S108.79,206,108.75,206.83Z" fill="#0071f2" data-primary="true"/>
<g opacity="0.3">
<path d="M87.6,309.49a5.75,5.75,0,0,0,3,2c3.61,1.06,7.45-.09,11.2-1.43s7.6-2.74,11.35-4.26a22.58,22.58,0,0,0,5.31-2.72,44.32,44.32,0,0,1,3.77-3c4-2.37,11.06.08,15.31-1.88l-.36-2.2c-2.65-.64-4-.7-6.61-1.29-6.75-1.45-13.34,2.53-19.95,4.55-7,2.12-14.56,2.12-21.19,5.15a4.83,4.83,0,0,0-2.27,1.74A3.28,3.28,0,0,0,87.6,309.49Z"/>
</g>
<path d="M60.49,220.19c-2.83,6.17-3.91,16.8-3.91,16.8L50.5,260.93l-7,37.95A24,24,0,0,0,47,308.34c3,4.66,14.33,3.51,25.7,1.36s46-12.53,46-12.53L116,278.8l-37,.48s13.62-30.22,11.69-40.64-11.61-31.25-12.57-31.7C74.5,205.25,63.31,214,60.49,220.19Z" fill="#0071f2" data-primary="true"/>
<path d="M97.7,203.7c.06.69.14,1.6.23,2.74.21,2.35.58,5.79,1.35,9.95a101.24,101.24,0,0,0,3.77,14.42c.91,2.64,2,5.39,3.21,8.17a15.84,15.84,0,0,0,1,2A3,3,0,0,0,109,242.1l4.56,1.43,1.52.45.68.22-.61.39-5.68,3.71.09-.47L125,270.71l4.55,6.79,1.19,1.84a3.4,3.4,0,0,1,.38.67,3.29,3.29,0,0,1-.47-.59l-1.29-1.78L124.72,271l-15.59-22.75-.18-.29.28-.18L114.9,244l.09.59-1.52-.45-4.56-1.43a3.57,3.57,0,0,1-2.11-1.34,17,17,0,0,1-1-2.14c-1.23-2.81-2.29-5.58-3.19-8.25a98,98,0,0,1-3.64-14.53,89,89,0,0,1-1.14-10c-.11-1.23-.11-2.11-.11-2.75a5.13,5.13,0,0,1,0-1A5.14,5.14,0,0,1,97.7,203.7Z" fill="#0071f2" data-primary="true"/>
<path d="M97.7,203.7c.06.69.14,1.6.23,2.74.21,2.35.58,5.79,1.35,9.95a101.24,101.24,0,0,0,3.77,14.42c.91,2.64,2,5.39,3.21,8.17a15.84,15.84,0,0,0,1,2A3,3,0,0,0,109,242.1l4.56,1.43,1.52.45.68.22-.61.39-5.68,3.71.09-.47L125,270.71l4.55,6.79,1.19,1.84a3.4,3.4,0,0,1,.38.67,3.29,3.29,0,0,1-.47-.59l-1.29-1.78L124.72,271l-15.59-22.75-.18-.29.28-.18L114.9,244l.09.59-1.52-.45-4.56-1.43a3.57,3.57,0,0,1-2.11-1.34,17,17,0,0,1-1-2.14c-1.23-2.81-2.29-5.58-3.19-8.25a98,98,0,0,1-3.64-14.53,89,89,0,0,1-1.14-10c-.11-1.23-.11-2.11-.11-2.75a5.13,5.13,0,0,1,0-1A5.14,5.14,0,0,1,97.7,203.7Z" fill="#fff" opacity="0.2"/>
<path d="M77.2,207.32a6.77,6.77,0,0,1,2.14.41,12.89,12.89,0,0,1,6.08,5,26.86,26.86,0,0,1,2.66,4.81,40.53,40.53,0,0,1,2.13,6,45.5,45.5,0,0,1,1.73,14.31,34.33,34.33,0,0,1-1.14,7.4c-.64,2.32-1.26,4.56-1.84,6.69-1.2,4.25-2.34,8.08-3.37,11.26s-2,5.72-2.67,7.46c-.38.85-.66,1.52-.92,2a3.11,3.11,0,0,1-.38.63,5.74,5.74,0,0,1,.26-.69c.21-.48.46-1.13.79-2,.64-1.74,1.51-4.33,2.46-7.52s2.18-7,3.24-11.26,2.75-8.9,2.9-14a45.8,45.8,0,0,0-1.65-14.12,44,44,0,0,0-2-5.88A27.65,27.65,0,0,0,85,213a13,13,0,0,0-5.81-5,11.14,11.14,0,0,0-2.79-.61A2.48,2.48,0,0,1,77.2,207.32Z" opacity="0.2"/>
<path d="M72.58,277.31a27,27,0,0,1,7.14,2.14c-.06.15-3.26-.71-7.27-1.52s-7.3-1.18-7.3-1.38A25.8,25.8,0,0,1,72.58,277.31Z" opacity="0.2"/>
<path d="M212.06,291.56,158.16,353s-41.4-42.41-39.51-42.2c.86.09,54-56.6,54-56.6Z" fill="#2f2e41" data-secondary="true"/>
<path d="M212.06,291.56,158.16,353s-41.4-42.41-39.51-42.2c.86.09,54-56.6,54-56.6Z" opacity="0.2"/>
<path d="M116.51,281,119,296.91l6.17-1.41s14.48,1.14,17.48.38,10.22-1.66,10.22-1.66a4.16,4.16,0,0,0,.22,2.78,4.07,4.07,0,0,0,2.47,2l2.5-5.22c1.17,2.09,2.93.16,2.93.16l1.72-4.56c1.33,2.66,3.67.19,3.67.19l.5-6.07a9.79,9.79,0,0,0,3,2c1.4.44,1.52-1.94,1.52-1.94l-6.35-8.45-14.43-2.25-21.46,8.43Z" fill="#f9b499"/>
<path d="M156.25,275a20.38,20.38,0,0,1,2.84.81,33.84,33.84,0,0,1,3.36,1.24,17.55,17.55,0,0,1,3.16,1.78,2.34,2.34,0,0,1,1,1.41,8.36,8.36,0,0,1,.17,1.37,6.2,6.2,0,0,1-.09,2.71c-.08,0-.12-1-.38-2.65-.08-.39-.14-.86-.25-1.29a1.67,1.67,0,0,0-.79-1.05,18.31,18.31,0,0,0-3-1.67c-1.14-.5-2.26-.91-3.29-1.28s-1.95-.71-2.72-.91a7.58,7.58,0,0,0-2.6-.16A3.35,3.35,0,0,1,156.25,275Z" fill="#f7a48b"/>
<path d="M154.67,280.12c1.5.42,3.63.8,5.92,1.62a4,4,0,0,1,1.68.89,5,5,0,0,1,.74,1.52,5.56,5.56,0,0,1,.44,2.82,8.51,8.51,0,0,1-.58,1.79,4.23,4.23,0,0,1-.27.64,2.16,2.16,0,0,1,0-.7,9.58,9.58,0,0,0,.35-1.79,8.77,8.77,0,0,0-1.2-3.89,3.81,3.81,0,0,0-1.41-.7c-2.22-.79-4.32-1.24-5.84-1.79a6.4,6.4,0,0,1-2.29-1.14A21.63,21.63,0,0,1,154.67,280.12Z" fill="#f7a48b"/>
<path d="M158.56,292.37a3.36,3.36,0,0,0,.18-1.83,2.32,2.32,0,0,0-1.41-1.52,7.28,7.28,0,0,0-2.31-.44l-2-.18c-.58-.06-1.07-.17-1.36-.17a2.84,2.84,0,0,1-.45,0c-.05,0,.07-.32.44-.32a10.59,10.59,0,0,1,1.38,0h2a7.42,7.42,0,0,1,2.55.46,2.85,2.85,0,0,1,1.75,2,3.31,3.31,0,0,1-.37,2.14,4.83,4.83,0,0,1-1.17,1.52A10.12,10.12,0,0,1,158.56,292.37Z" fill="#f7a48b"/>
<path d="M91.2,166.47c1.56,10.24,7.49,13,16.23,18.54l54.06-22.79c4.29-4.33,6.46-21,1.79-33.89C161,121.9,159,114.9,153.41,111A36,36,0,0,0,139,104.81c-10-1.29-19.23-.33-27.69,5.2-9.51,6.21-12.78,17.55-16,28.46C93.31,145.23,90.15,159.54,91.2,166.47Z" fill="#2f2e41" data-secondary="true"/>
<path d="M105.66,126.43l-.92,85.1c17.74,8.4,32.16,10.91,37.29-3.18l.53-11.82c.39-5.24.39-5.5.39-5.5s13.68-1.67,17.34-19.22c1.84-8.71,2-23.13,1.84-34.95-.17-10.62-6.57-24-17.2-23.34l-33.43,6.79A6.25,6.25,0,0,0,105.66,126.43Z" fill="#f9b499"/>
<path d="M142.62,195.42c-17.75.82-23-11.82-23-11.82A45.1,45.1,0,0,0,143,191Z" fill="#f7a48b"/>
<path d="M145.22,110.78a50.09,50.09,0,0,0-26.08-1.08c-6.08,1.4-12.37,4.36-15.19,10-4.08,8.06.54,18.09-2,26.77a6.43,6.43,0,0,0,7.59.44,12.63,12.63,0,0,0,4.83-6.4l-.65,3.6c5.37.93,10.85-1.67,14.74-5.48s6.46-8.72,9-13.56a23.81,23.81,0,0,1-6,13.27,6.46,6.46,0,0,0,5.66-1.31,14.35,14.35,0,0,0,3.64-4.72,39.08,39.08,0,0,0,4.56-20.77" fill="#2f2e41" data-secondary="true"/>
<path d="M144.58,112h0v-.39A2.54,2.54,0,0,0,144.58,112Z" fill="#263238"/>
<path d="M141,138.91a8.66,8.66,0,0,1,3.81.47,4.24,4.24,0,0,0,3.71-.46,4.57,4.57,0,0,0,1.2-2.26,52.7,52.7,0,0,0,2.14-17.87,54.27,54.27,0,0,1,3.18,10.27,19.39,19.39,0,0,1-.84,10.64l0,.05a1.51,1.51,0,0,0,2.14.13,3.69,3.69,0,0,0,1.14-2.14,27,27,0,0,0,.2-9c1.49,3.27,1.78,7,2.44,10.49s1.92,7.2,4.74,9.42a46.75,46.75,0,0,0,.73-13.56,41.27,41.27,0,0,0-3-11.06,32.12,32.12,0,0,0-6.28-10.63c-4.83-5-7.17-3.23-10.64-1.78l-1.11.36A50.58,50.58,0,0,1,141,138.91Z" fill="#2f2e41" data-secondary="true"/>
<path d="M128.21,229.08c-5.21,3.45-10.59,5.1-15.74,7.08a36.55,36.55,0,0,1-11.4-12.69c.66,2.9,1.45,5.79,2.37,8.62l-1.52,1.26a72.7,72.7,0,0,1-7.71-37.61l11.22-60,15.47-.82c3,11.61-6.29,23.54-4.13,35.33.9,4.86,3.69,9.32,3.85,14.25.13,4.68-2.12,9.15-2,13.8.17,5.52,3.45,10.35,6.25,15.11S130,223.9,128.21,229.08Z" fill="#2f2e41" data-secondary="true"/>
<path d="M90.93,623.91,89.67,641.6l53.18,1.52c5.14-19.21-26.6-16.56-26.6-16.56V625A30.37,30.37,0,0,1,90.93,623.91Z" fill="#0071f2" data-primary="true"/>
<path d="M283.66,248.61l-1.07-.2c.09-.46,9.4-45.39,67.81-51.69l.12,1.09C292.9,204,283.74,248.17,283.66,248.61Z" fill="#0071f2" data-primary="true"/>
<polygon points="278.8 246.16 281.81 253.51 287.96 248.51 278.8 246.16" fill="#0071f2" data-primary="true"/>
<g opacity="0.2">
<path d="M283.66,248.61l-1.07-.2c.09-.46,9.4-45.39,67.81-51.69l.12,1.09C292.9,204,283.74,248.17,283.66,248.61Z" fill="#fff"/>
<polygon points="278.8 246.16 281.81 253.51 287.96 248.51 278.8 246.16" fill="#fff"/>
</g>
<polygon points="353.25 165.42 356.69 195.04 385.13 192.88 382.11 162.87 353.25 165.42" fill="#0071f2" data-primary="true"/>
<path d="M514.76,394.52s22.76,28.9,37.26,30.17c0,0,7.83-13.33,11-22.86,0,0-37.07-8.26-42-17.15C521,384.68,517.62,389.76,514.76,394.52Z" fill="#2f2e41" data-secondary="true"/>
<path d="M539.51,332.27l-.88-8.95,10.79-15.89S548.69,323.46,539.51,332.27Z" fill="#f7a48b"/>
<ellipse cx="529.16" cy="297.98" rx="19.17" ry="28.74" transform="translate(-67.48 184.74) rotate(-18.64)" fill="#f9b499"/>
<path d="M502,273.65a1.91,1.91,0,0,1,1.73-2.07c3.59-.35,11.27-1.81,12.35-7.94,0,0,6.15-16.79,33.11-4.14,0,0,16.09-5.32,18.93,17.38L565.74,310s-13.52.89-16.22-5.74c0,0-12.21-16-21.94-20.62a8.55,8.55,0,0,0-6.58-.34C515.87,285.14,503.34,288.1,502,273.65Z" fill="#2f2e41" data-secondary="true"/>
<path d="M502,273.65a1.91,1.91,0,0,1,1.73-2.07c3.59-.35,11.27-1.81,12.35-7.94,0,0,6.15-16.79,33.11-4.14,0,0,16.09-5.32,18.93,17.38L565.74,310s-13.52.89-16.22-5.74c0,0-11.87-15.56-21.53-20.42a9.56,9.56,0,0,0-7.42-.39C515.21,285.28,503.31,287.71,502,273.65Z" opacity="0.2"/>
<ellipse cx="546.82" cy="297.64" rx="5.2" ry="7.76" fill="#f9b499"/>
<path d="M696.88,239.72s-1.32,9.66-3.67,12.89c0,0,3.8,3.79,13.49.81a17.39,17.39,0,0,0,4.14-1.94l8.37-5.23-1.52-10.69S709.46,245.6,696.88,239.72Z" fill="#f9b499"/>
<path d="M650.11,398.93s-6.75-1.68-8.51-7.58c0,0,14.53-23.66,16.65-72.55,0,0-14,14.74-25.44,7.7L634,295.71s22.87-16.42,31.08-27c0,0,12.86-14.35,21.39-12.31L669.17,364l-10.83,9.67Z" fill="#0071f2" data-primary="true"/>
<path d="M638,328.31s19.69-28.79,27.61-54.59l2.77-8.36s-5,39.88-10.17,53.44C658.25,318.8,648.55,329.53,638,328.31Z" opacity="0.2"/>
<path d="M767.4,339.7l21.05,54.94,20.23,3.43a6.06,6.06,0,0,1,5.05,6v.64H776.2l-29.33-54.14S754.79,340.58,767.4,339.7Z" fill="#f9b499"/>
<path d="M767.4,339.7s-7.46,17.58-8,34l-12.55-23.16S751.86,342,767.4,339.7Z" fill="#f7a48b"/>
<path d="M597.58,227.76s-12.75,5.71-8.39,12.42c0,0,9.4,11.08,11.75,19.47,0,0,11.37,63.88,31.87,66.85L634,295.71s-1.82,1.54-6.86-11.55l-16.66-33.63a9,9,0,0,1-.92-4.6c.28-4.09.43-12.69-2.56-18.17l-10.49-16.19a2.39,2.39,0,0,0-3.23-.75h0a2.39,2.39,0,0,0-1,2.9Z" fill="#f9b499"/>
<path d="M693.21,252.61s-7,1.17-12.31,11.14l-17.3,22.87s-7.78,13.55-.13,24.17a21,21,0,0,1,3.68,8,67.53,67.53,0,0,1-2.38,34.73L661,365.85a14.35,14.35,0,0,1-1.79,3.92c-1.06,1.58-2.16,4.82,2.35,8.93,0,0,12.91,13.49,53.08,12.61,0,0,7.62-15,0-51.61,0,0-4.11-26.69-2.64-42.23,0,0-1.47-32.25,2.35-39.88l4.88-11.34-8,5a20.26,20.26,0,0,1-6.79,2.74C701.22,254.62,696.88,254.8,693.21,252.61Z" fill="#e6e7e8"/>
<path d="M704.11,406.49l-.05.07s12.32,10.55,32.26,10.55c0,0,20.23-17.59,10.55-66.56,0,0,9.39-10.27,20.53-10.85,0,0,5.87-2.05,0-8.51,0,0,9.18-2.68.29-22l-6.15-13.49L747.17,265s-7.17-16.1-28-18.77l-4.88,11.34s-2.72,4.67-2.58,21.11l.23,18.77a294,294,0,0,0,2.64,42.23s1.29,4.84,2.36,11.9A76.43,76.43,0,0,1,704.11,406.49Z" fill="#0071f2" data-primary="true"/>
<path d="M723.32,271.37s1,36.46,8.89,60.31c0,0,20.53,58.45,4.11,85.43,0,0,17.08-15.13,12.51-54.51a57.74,57.74,0,0,0-5.67-18.89C737.73,332.71,727.81,308.5,723.32,271.37Z" opacity="0.2"/>
<path d="M695.78,245.59a36.85,36.85,0,0,0,1.3-7.67l18.79-1.24S708.29,246.13,695.78,245.59Z" fill="#f7a48b"/>
<ellipse cx="704.65" cy="211.85" rx="21.41" ry="29.91" fill="#f9b499"/>
<path d="M676,207.35s14.47,1.17,22.68-20.13c0,0-1.2,12.95,12.49,16.1a20.35,20.35,0,0,1,11.76,7.26,17.46,17.46,0,0,1,2.89,5.62s-.47,11-8.14,19.36l1.52,10.69s18.11,1.56,28,18.77l14.37,30.69s4.39-.58,9.09-5.28c0,0-19.94-12.9-19.06-39,0,0-1.18-29.61-4.4-37.24,0,0,5.48,11.6,7,34.9,0,0-1.18,17.59,11.43,24.34A47.76,47.76,0,0,1,755.46,243a80,80,0,0,0-.68-14.1c-2-13.13-8.37-35.38-28.73-50.45,0,0-22.87-15.84-38.7,0,0,0-7.33,2.93-6.75,19.06C680.6,197.48,680.21,204,676,207.35Z" fill="#2f2e41" data-secondary="true"/>
<ellipse cx="727.65" cy="216.34" rx="6.03" ry="8.41" fill="#f9b499"/>
<path d="M552.07,609.79s-33.32,7.45-23.11,12.66c0,0,15.08,10.35,37.94,0,0,0,7.06-2.82,12.89-2.33,0,0,28.71,1.66,17.24-21.89C597,598.23,570.31,614.3,552.07,609.79Z" fill="#0071f2" data-primary="true"/>
</svg>